<?xml version="1.0" encoding="utf-8"?>
<!-- Generator: Adobe Illustrator 19.1.0, SVG Export Plug-In . SVG Version: 6.00 Build 0)  -->
<!DOCTYPE svg PUBLIC "-//W3C//DTD SVG 1.1//EN" "http://www.w3.org/Graphics/SVG/1.1/DTD/svg11.dtd">
<svg version="1.1" id="Layer_1" xmlns="http://www.w3.org/2000/svg" xmlns:xlink="http://www.w3.org/1999/xlink" x="0px" y="0px"
	 viewBox="0 0 454.9 624.4" style="enable-background:new 0 0 454.9 624.4;" xml:space="preserve">
<style type="text/css">
	.st0{fill:#37306B;}
	.st1{fill:#BFD5D7;}
	.st2{fill:#64CCC3;}
	.st3{fill:#37306B;stroke:#37306B;stroke-miterlimit:10;}
	.st4{fill:#231F20;}
	.st5{fill:#FFFFFF;}
	.st6{fill:#BFD5D7;stroke:#37306B;stroke-width:2;stroke-miterlimit:10;}
</style>
<g>
	<g>
		<g>
			<path class="st0" d="M208.8,463.9c-10.9,0-19.9-2.8-26.4-8.2c-12.6-10.6-16.2-30.8-10.6-60.1c0.1-0.6,0.3-1.2,0.4-1.9
				c1.8-8.1,2.7-16.1-7.6-18.4l0.4-2c13.1,2.9,10.5,14.6,9.2,20.8c-0.1,0.7-0.3,1.3-0.4,1.8c-5.5,28.6-2.1,48.2,9.9,58.2
				c18.7,15.6,52.4,2.8,52.8,2.7l0.7,1.9c-0.4,0.1-8.8,3.4-19.9,4.7C214.4,463.7,211.5,463.9,208.8,463.9z"/>
		</g>
	</g>
</g>
<g>
	<g>
		<g>
			<g>
				<path class="st1" d="M328.9,109c-2.1,0-3.7,1.7-3.7,3.7c0,2.1,1.7,3.7,3.7,3.7S330.9,109,328.9,109z M428.8,114.2
					c0,0,29.5-39.5,21-81.5C432.8-51.4,325,53.4,325,53.4l0.5,0.5c16.5,9.7,29.1,28,29.8,49.8c0.3,9.7,3.1,26.7,1,42.6
					c3.7-1,7.9-2.8,12-5.9c11.3-8.7,18.4-13.3,16.7-2.7c-1.7,10.2-23.7,27.6-34.8,31.3c10.4,7.5,27.6,24.1,42.7,49.7
					c6.6-4.2,19.8-9.3,26.4,9.9c1.5-0.9,3-1.8,4.5-2.8C490.8,181.2,428.8,114.2,428.8,114.2z"/>
			</g>
		</g>
	</g>
</g>
<g>
	<g>
		<g>
			<g>
				<path class="st1" d="M267.7,211.1c-4,0.9-8.2,0.9-12.7-0.3c-15.7-4.3-11.7,9.3-4.7,9.7c7,0.3,3.3,3.5,2.7,4.7
					c-0.7,1.4-0.6,4.8,1,6.8c-16.5,19.6-41.1,31.5-76.3,11c-69.5-40.5-11.5-111-11.5-111s-31.8-37.7-25.7-80.1
					c12.1-85,124.8,10.8,124.8,10.8l0.1,0.4c-5.4,6.2-10,14.2-13.6,24.4c-9.8,27.9-6.7,48.5,0.8,63.4c-6.5-2.7-9.6-2.2-7.1,5
					c2.9,8.4,21.6,19.5,34.2,23.5c0,0,0,0,0,0c0.2,0.1,0.4,0.3,0.6,0.4c4.4,2.6,7.5,3.8,7.5,3.8s0.8,0.2,2.2,0.4
					C290.5,194.8,281,208.1,267.7,211.1z"/>
			</g>
		</g>
	</g>
</g>
<g>
	<g>
		<g>
			<g>
				<path class="st0" d="M165.4,374.8c0,0-2.5-26.8-16.9-25.1c-17.9,2.2,8.6,15.6,8.6,15.6s-21.5-7.4-22.5-1.2
					C132.7,375.6,165.4,374.8,165.4,374.8z"/>
			</g>
		</g>
	</g>
</g>
<g>
	<g>
		<g>
			<g>
				<g>
					<path class="st2" d="M73.2,527.1c0.8,0,1.5,0.7,1.5,1.5s-0.7,1.5-1.5,1.5s-1.5-0.7-1.5-1.5S72.3,527.1,73.2,527.1z M87.8,572.9
						c0-0.2-0.1-0.3-0.2-0.5c-1.6-4.8-4-8.8-6.2-11.3c-3.3-3.8-7.8-8.3-5.5-9s22.4-25.8,22.4-28.5c0-0.6-0.2-0.9-0.5-1.1
						c-0.4,0.5-0.8,0.7-1.3,0.7c-0.4,0-0.7-0.1-1-0.4c-0.8,0.3-1.5,0.8-1.5,0.8c-8.3,7.7-19,4.3-21,1c-0.9-1.5-3.8-1.6-6.6-1.2
						c-0.2,0-0.3,0-0.5,0.1h0l-0.5,0.1c-3,0.5-5.7,1.4-5.7,1.4l-23-10.3l-6,6l0.2,0.4l0,0.1l-4.8-1.2c0,0-23.3,19.3-5.3,44
						c10,13.7,19.9,10.3,26.7,4.6c0.2-0.2,0.4-0.3,0.6-0.5l0.3,0.4c3.1,3.7,7.5,10.7,1.3,15.2c-7.8,5.7-7.2,15-6.1,19.4
						c0.1,0.5,0.3,0.9,0.4,1.2c1.1,2.9,4.2,5.7,8.7,7l-0.7-2.3l7.3-2.3L59,612c1.8,0,3.8-0.3,5.9-0.8c1.1-0.3,2.2-0.6,3.3-1
						c3.4-1.2,7-3.2,10.8-6c11.8-8.7,12-21.2,9-30.9C87.9,573.2,87.8,573,87.8,572.9z"/>
				</g>
			</g>
		</g>
	</g>
	<g>
		<g>
			<g>
				<g>
					<path class="st0" d="M56.7,558.2c-0.3,0.5-3.5,5.9-8.4,10.2L48,568c-0.2,0.2-0.4,0.4-0.6,0.5l0,0c5-4.4,8.5-10.8,8.6-10.9
						l0.1-0.1c0,0,3.6-4.1,3.1-8.7c-0.3-2.6-1.9-4.9-4.7-6.9c-10-7-12.1-10.3-12.1-10.5l0.9-0.5c0,0,2.1,3.4,11.9,10.2
						c3,2.1,4.7,4.7,5.1,7.6C60.6,553.6,57.1,557.7,56.7,558.2z"/>
				</g>
			</g>
		</g>
	</g>
	<g>
		<g>
			<g>
				<g>
					<polygon class="st0" points="54,525.6 53.7,526.6 30.8,521 30.7,520.6 31.2,520.1 					"/>
				</g>
			</g>
		</g>
	</g>
	<g>
		<g>
			<g>
				<g>
					<circle class="st0" cx="73.2" cy="528.6" r="1.5"/>
				</g>
			</g>
		</g>
	</g>
	<g>
		<g>
			<g>
				<g>
					<path class="st0" d="M27.8,609.6c-0.9,0-1.8-0.1-2.7-0.3c-2.7-0.7-4.8-2.4-6.2-5.2c-0.6-1.3-1.1-3.6-1.6-6.3
						c-1-5.3-2.2-11.8-5.5-13c-1.6-0.6-3.7,0.2-6.2,2.4L5,586.5c2.8-2.4,5.2-3.3,7.2-2.6c3.8,1.3,5.1,8.2,6.1,13.7
						c0.5,2.6,0.9,4.8,1.5,6c1.2,2.5,3.1,4.1,5.5,4.7c7.4,1.8,17.8-5.8,17.9-5.9l0.6,0.8C43.4,603.6,35.1,609.6,27.8,609.6z"/>
				</g>
			</g>
		</g>
	</g>
	<g>
		<g>
			<g>
				<g>
					<path class="st0" d="M79.3,622.3c-3.7,3-22.7,2-22.7,2l-4-13l-0.7-2.3l7.3-2.3L59,612l-0.7,10.2
						C58.3,622.3,83,619.3,79.3,622.3z"/>
				</g>
			</g>
		</g>
	</g>
	<g>
		<g>
			<g>
				<g>
					<path class="st0" d="M89,613.9c-3.7,3-22.7,2-22.7,2l-1.4-4.7c1.1-0.3,2.2-0.6,3.3-1l-0.2,3.7C68,613.9,92.7,610.9,89,613.9z"
						/>
				</g>
			</g>
		</g>
	</g>
	<g>
		<g>
			<g>
				<path class="st0" d="M98.7,519.8c0,1.1-0.3,2.1-0.8,2.8c-0.4,0.5-0.8,0.7-1.3,0.7c-0.4,0-0.7-0.1-1-0.4
					c-0.7-0.6-1.1-1.8-1.1-3.1c0-1.9,1-3.5,2.2-3.5C97.7,516.3,98.7,517.8,98.7,519.8z"/>
			</g>
		</g>
	</g>
	<g>
		<g>
			<g>
				<g>
					<path class="st0" d="M6.2,586.4c0,0-7,1.5-6.1,5.2c1.1,4.6,3.8-2.7,3.8-2.7s-1.3,5.9,0.4,6C7.4,595,6.2,586.4,6.2,586.4z"/>
				</g>
			</g>
		</g>
	</g>
	<g>
		<g>
			<g>
				<g>
					<path class="st0" d="M66.2,534.4l-0.6,0.8c-3-2.1-1.1-9.2-0.3-11.7l0.5-0.1h0c0.2,0,0.3,0,0.5-0.1h0
						C65.1,527.5,64.1,533,66.2,534.4z"/>
				</g>
			</g>
		</g>
	</g>
	<g>
		<g>
			<g>
				<g>
					<path class="st0" d="M82.6,589.1c-0.9,0-1.8-0.3-2.2-0.6c-0.7-0.4-1-1.2-1-2.2c0.1-1.5,1.1-2.8,2.5-3.5l0.4,0.9
						c-1.4,0.7-1.9,1.9-2,2.7c0,0.6,0.2,1.1,0.5,1.3c0.5,0.3,1.9,0.6,2.6,0.2c0.2-0.1,0.4-0.3,0.4-1c-0.1-0.6-0.2-1-0.4-1
						c-0.4-0.1-1.2,0.4-1.6,0.8l-0.7-0.7c0.2-0.2,1.5-1.5,2.6-1.1c0.6,0.2,1,0.8,1.1,1.9c0.1,1.1-0.4,1.7-0.8,1.9
						C83.7,589,83.1,589.1,82.6,589.1z"/>
				</g>
			</g>
		</g>
	</g>
	<g>
		<g>
			<g>
				<g>
					<g>
						<polygon class="st0" points="96.6,567.1 94.2,570.2 93.5,571.2 93.3,571.2 93.1,571.3 61.5,583.7 61.1,582.8 92,570.7 
							92.8,570.3 92.9,570.3 95.8,566.5 						"/>
					</g>
				</g>
			</g>
		</g>
	</g>
	<g>
		<g>
			<g>
				<g>
					<polygon class="st0" points="94.9,571.2 98.7,573.3 98.2,574.2 93.1,571.3 92,570.7 92.8,570.3 92.9,570.3 94.2,570.2 
						101.3,569.9 101.3,570.9 					"/>
				</g>
			</g>
		</g>
	</g>
	<g>
		<g>
			<g>
				<path class="st3" d="M149.7,619.1c-29.5,0-53.6-24-53.6-53.6s24-53.6,53.6-53.6s53.6,24,53.6,53.6S179.2,619.1,149.7,619.1z
					 M149.7,513c-29,0-52.6,23.6-52.6,52.6s23.6,52.6,52.6,52.6s52.6-23.6,52.6-52.6S178.6,513,149.7,513z"/>
			</g>
		</g>
	</g>
</g>
<g>
	<g>
		<g>
			<g>
				<path class="st4" d="M328.9,117c-2.3,0-4.2-1.9-4.2-4.2c0-2.3,1.9-4.2,4.2-4.2c2.3,0,4.2,1.9,4.2,4.2
					C333.1,115.1,331.2,117,328.9,117z M328.9,109.5c-1.8,0-3.2,1.5-3.2,3.2c0,1.8,1.5,3.2,3.2,3.2c1.8,0,3.2-1.4,3.2-3.2
					C332.1,111,330.7,109.5,328.9,109.5z"/>
			</g>
		</g>
	</g>
</g>
<g>
	<g>
		<g>
			<g>
				<path class="st4" d="M328.9,117c-2.3,0-4.2-1.9-4.2-4.2c0-2.3,1.9-4.2,4.2-4.2c2.3,0,4.2,1.9,4.2,4.2
					C333.1,115.1,331.2,117,328.9,117z M328.9,109.5c-1.8,0-3.2,1.5-3.2,3.2c0,1.8,1.5,3.2,3.2,3.2c1.8,0,3.2-1.4,3.2-3.2
					C332.1,111,330.7,109.5,328.9,109.5z"/>
			</g>
		</g>
	</g>
</g>
<g>
	<g>
		<g>
			<g>
				<path class="st0" d="M284.8,118.6c0,2.1-1.7,3.7-3.7,3.7c-2.1,0-3.7-1.7-3.7-3.7c0-2.1,1.7-3.7,3.7-3.7
					C283.1,114.9,284.8,116.6,284.8,118.6z"/>
			</g>
		</g>
	</g>
</g>
<g>
	<g>
		<g>
			<g>
				<path class="st1" d="M415.6,274c-13.8,10.7-42.3,12.8-52.3,13.2c-1.7,2-3,2.3-3.6,0.1c-2-8.5-53,23-53,23s-34.5,8.5-50.5-27.5
					c-0.8-1.8-1.4-3.5-2-5.1c-19.5,12.4-101.2,72.9-28.5,175.1c1.7,2.4,3.5,4.7,5.2,6.8c33.4,40.6,77.4,37.4,114.1,16.2
					c21.1-12.1,39.8-30.2,52.8-49.3c9.9-14.5,16.5-29.7,18.3-43.2C421.1,347.5,423,304.3,415.6,274z M355,447.2
					c-4.4,1.9-9.4,4.3-14.7,7.5c-0.3,0.2-0.6,0.4-0.9,0.5c-3.1-5.2-8.4-15.7-3.6-20.5c6.5-6.5,17.5,8,15,4s0-11,0-11
					c3.5-7.1,11-3.7,16.6,0.2c0.4,0.3,0.4,2.3,0.4,2.3C378.2,439.8,369.7,440.9,355,447.2z"/>
			</g>
		</g>
	</g>
</g>
<g>
	<g>
		<g>
			<g>
				<path class="st4" d="M276.3,240.4l-0.2-1c0.7-0.2,1.2-0.3,1.2-0.3l0.2,1C277.4,240.2,277,240.3,276.3,240.4z"/>
			</g>
		</g>
	</g>
</g>
<g>
	<g>
		<g>
			<g>
				<rect x="319.5" y="104.7" class="st1" width="20.3" height="16.5"/>
			</g>
		</g>
	</g>
</g>
<g>
	<g>
		<g>
			<g>
				<path class="st5" d="M370.7,267.4c-0.4,2.2-0.8,4.2-1.4,6.2l-1.1,0.1c0,0-4-0.2-8.4-1.1c-7-1.5-15.2-4.8-9.6-11.9
					c4-5.2,7.4-7.1,9.8-7.7c1.4-0.3,2.4-0.2,3.2,0c-0.8-0.4-2-1-3.2-1.7c-5.5-3.1-12.9-8.8-5.3-13.6c2.3-1.5,4.3-2.4,6-3
					c0.3,0.1,0.7,0.2,1,0.4c2.4,1,4.5,2.5,6,4.5c0.9,1.2,1.6,2.6,2,4.2c0.7,2.4,1.2,4.9,1.5,7.4c0.1,0.4,0.1,0.9,0.1,1.3
					C371.9,257.5,371.6,262.7,370.7,267.4z"/>
			</g>
		</g>
	</g>
	<g>
		<g>
			<g>
				<path class="st0" d="M368.3,274.2c-0.1,0-4.1-0.2-8.5-1.1c-6.6-1.4-10.5-3.6-11.6-6.4c-0.7-1.9-0.1-4,1.7-6.2
					c3.5-4.5,6.9-7.1,10.1-7.8c0.3-0.1,0.7-0.1,1-0.2c-0.4-0.2-0.7-0.4-1.1-0.6c-4-2.3-8.7-5.8-8.8-9.4c0-1.9,1.1-3.6,3.4-5
					c2.1-1.4,4.2-2.4,6.1-3.1l0.2-0.1l0.2,0.1c0.3,0.1,0.7,0.2,1,0.4c2.6,1.1,4.7,2.6,6.2,4.6c0.9,1.3,1.7,2.7,2.1,4.3
					c0.7,2.4,1.2,4.9,1.5,7.5c0.1,0.4,0.1,0.9,0.1,1.3c0.4,4.8,0.2,9.9-0.7,15.2c-0.4,2.1-0.8,4.2-1.4,6.2l-0.1,0.3L368.3,274.2z
					 M361.8,253.3c-0.5,0-1,0.1-1.6,0.2c-3,0.7-6.2,3.2-9.5,7.5c-1.6,2-2.1,3.8-1.5,5.3c0.9,2.5,4.7,4.5,10.9,5.8
					c4.3,0.9,8.2,1.1,8.3,1.1l0.6-0.1c0.5-1.9,0.9-3.8,1.3-5.8v0c0.9-5.2,1.1-10.2,0.7-14.9c0-0.4-0.1-0.8-0.1-1.2
					c-0.3-2.6-0.8-5-1.5-7.3c-0.4-1.5-1.1-2.8-2-4c-1.4-1.9-3.3-3.3-5.8-4.3c-0.3-0.1-0.5-0.2-0.8-0.3c-1.8,0.6-3.7,1.6-5.7,2.9
					c-2,1.3-3,2.7-3,4.2c0.1,2.5,3,5.6,8.3,8.6c1,0.6,2.1,1.2,3.2,1.7l-0.3,0.9C362.8,253.4,362.3,253.3,361.8,253.3z"/>
			</g>
		</g>
	</g>
</g>
<g>
	<g>
		<g>
			<g>
				<path class="st0" d="M389.1,222.1l-0.7-0.7c0.1-0.1,1.6-1.5,4.1-3.1l0.5,0.8C390.7,220.6,389.2,222.1,389.1,222.1z"/>
			</g>
		</g>
	</g>
</g>
<g>
	<g>
		<g>
			<g>
				<path class="st6" d="M355.3,103.7c-0.7-21.8-13.3-40.2-29.8-49.8c-18.9-11.1-43-10.7-60.1,8.9c-5.4,6.2-10,14.2-13.6,24.4
					c-9.8,27.9-6.7,48.5,0.8,63.4c2.7,1.1,6,2.8,9.8,4.7c7.1,3.7,13.9,4.2,18.5,3.8c2-0.1,3.6-0.4,4.6-0.6
					c1.2,8.3,2.6,16.3,3.9,20.5c0.1,0.4,0.2,0.8,0.3,1.2c0.2,1.1,0.4,2.2,0.4,3.3c0.4,11.2-9.1,24.5-22.4,27.5
					c-4,0.9-8.2,0.9-12.7-0.3c-15.7-4.3-11.7,9.3-4.7,9.7c7,0.3,3.3,3.5,2.7,4.7c-0.7,1.4-0.6,4.8,1,6.8c1.7,2.1,5.1,2.7,11-2.5
					c0,0,7,0.9,13.7,1.2c4,0.2,7.8,0.1,10-0.5c14.3-4,30.2-15.6,42-33.3c4.2-6.2,7.8-13.3,10.6-21c0.9-2.4,1.7-4.9,2.4-7.4
					c0.3-1,0.5-1.9,0.8-2.9c1.5-5.7,2.5-11.7,3.1-17.9c2,0,5.1-0.2,8.7-1.2C358.4,130.4,355.6,113.4,355.3,103.7z M281,122.4
					c-2.1,0-3.7-1.7-3.7-3.7c0-2.1,1.7-3.7,3.7-3.7c2.1,0,3.7,1.7,3.7,3.7C284.8,120.7,283.1,122.4,281,122.4z M328.9,116.5
					c-2.1,0-3.7-1.7-3.7-3.7c0-2.1,1.7-3.7,3.7-3.7s3.7,1.7,3.7,3.7C332.6,114.8,330.9,116.5,328.9,116.5z"/>
			</g>
		</g>
	</g>
</g>
<g>
	<g>
		<g>
			<g>
				<path class="st0" d="M348.6,147.6l-2-0.2c0.6-6.6,0.6-13.4,0-20.3l2-0.2C349.2,133.9,349.2,140.9,348.6,147.6z"/>
			</g>
		</g>
	</g>
</g>
<g>
	<g>
		<g>
			<g>
				<path class="st0" d="M284.4,158.7c-1.9-13.5-3.4-28-3.5-28.2l2-0.2c0,0.1,1.5,14.6,3.5,28.1L284.4,158.7z"/>
			</g>
		</g>
	</g>
</g>
<g>
	<g>
		<g>
			<g>
				<path class="st0" d="M340,99.1c-1.2-2.9-3.2-4.9-5.8-5.9c-6.2-2.3-14.1,1.4-14.2,1.4l-0.9-1.8c0.4-0.2,8.8-4.1,15.7-1.5
					c3.2,1.2,5.5,3.6,6.9,7L340,99.1z"/>
			</g>
		</g>
	</g>
</g>
<g>
	<g>
		<g>
			<g>
				<path class="st0" d="M266.2,113.8l-2-0.3c0.1-0.4,1.7-9.6,7.9-13.7c2.8-1.9,6.1-2.4,9.7-1.6l-0.4,2c-3.1-0.7-5.9-0.3-8.2,1.3
					C267.7,105.1,266.2,113.7,266.2,113.8z"/>
			</g>
		</g>
	</g>
</g>
<g>
	<g>
		<g>
			<g>
				<path class="st0" d="M339.2,178.5l1.2-3.2c0.9-2.3,1.7-4.8,2.4-7.3c0.3-0.9,0.5-1.9,0.8-2.9c1.5-5.7,2.5-11.7,3.1-17.8l0.1-0.9
					l0.9,0c1.9,0,4.9-0.2,8.5-1.2c4.2-1.1,8.1-3.1,11.6-5.7c9.3-7.1,14.2-10.2,16.9-8.6c2,1.2,1.7,4.5,1.4,6.9l0,0
					c-1.7,10.6-24,28.2-35.5,32.1c-0.9,0.3-1.7,0.5-2.4,0.6c-0.6,0.8-1.3,1.5-2,2.3c-1.3,1.3-2.6,2.5-4.2,3.7L339.2,178.5z
					 M348.5,148.5c-0.6,5.9-1.6,11.7-3,17.2c-0.3,1-0.5,1.9-0.8,2.9c-0.4,1.4-0.8,2.7-1.2,4c0.4-0.4,0.8-0.7,1.1-1.1
					c0.8-0.8,1.5-1.7,2.1-2.5l0.3-0.3l0.4-0.1c0.7-0.1,1.5-0.3,2.5-0.6c10.8-3.6,32.6-20.7,34.2-30.5c0.6-3.8-0.1-4.7-0.4-4.8
					c-2-1.2-10.2,5.1-14.7,8.5c-3.7,2.8-7.9,4.9-12.3,6.1C353.4,148.1,350.5,148.4,348.5,148.5z"/>
			</g>
		</g>
	</g>
</g>
<g>
	<g>
		<g>
			<g>
				<path class="st0" d="M291.1,184.7l-1.2-0.2c-1.5-0.2-2.3-0.4-2.3-0.4l-0.2-0.1c-0.1,0-3.2-1.2-7.6-3.9l-0.2-0.1l0,0l-0.4-0.2
					c-12.4-4-31.6-15.1-34.7-24.1c-1.2-3.5-1.2-5.7,0.1-6.9c1.4-1.3,3.9-1.1,8.4,0.7c2.9,1.2,6.5,3,9.9,4.8c7,3.6,13.6,4,17.9,3.7
					c1.9-0.1,3.5-0.4,4.4-0.6l1.1-0.2l0.2,1.1c1.4,9.9,2.7,16.8,3.8,20.4c0.1,0.4,0.3,0.9,0.4,1.3c0.2,1.1,0.4,2.3,0.4,3.5
					L291.1,184.7z M288.1,182.2c0.1,0,0.4,0.1,0.9,0.1c-0.1-0.6-0.2-1.3-0.3-1.9c-0.1-0.4-0.2-0.8-0.3-1.2
					c-1.1-3.6-2.4-10.2-3.8-19.6c-1,0.2-2.2,0.4-3.7,0.4c-4.6,0.3-11.6-0.1-19-4c-3.4-1.8-6.8-3.5-9.7-4.7c-4.5-1.8-5.8-1.5-6.2-1.1
					c-0.3,0.3-0.8,1.3,0.5,4.8c2.2,6.2,17.1,17.5,33.2,22.8l0,0l1.9,0.6l-0.1,0.3C285,181,287.6,182,288.1,182.2z"/>
			</g>
		</g>
	</g>
</g>
<g>
	<g>
		<g>
			<g>
				<path class="st0" d="M366.4,428.1c-1.6-9.3-11.2-56.1-39.9-63.9l0.5-1.9c12.6,3.4,23.1,14.2,31.2,31.8
					c6.3,13.9,9.2,28.2,10.2,33.7L366.4,428.1z"/>
			</g>
		</g>
	</g>
</g>
<g>
	<g>
		<g>
			<g>
				<path class="st0" d="M323.7,462.3c-1.5,0-2.8-0.3-3.9-0.9c-3-1.7-3.1-5.1-3.1-5.2c0.4-21-8-36.9-24.8-47.4
					c-12.7-7.9-25.7-9.6-25.8-9.6l0.2-2c0.5,0.1,13.5,1.7,26.5,9.8c12.1,7.5,26.4,22.1,25.8,49.2c0,0.1,0.1,2.4,2.1,3.5
					c2.2,1.2,7.1,1.3,18-5.3l1,1.7C333.1,460.3,327.7,462.3,323.7,462.3z"/>
			</g>
		</g>
	</g>
</g>
<g>
	<g>
		<g>
			<g>
				<path class="st1" d="M415.2,562.9L415.2,562.9c-10.6,1.6-26.8,0.3-38.6-0.9c-6.1-0.6-11-1.2-13.3-1.3c-10-0.5-8,0-5-20.5
					c4.5-31.1-6.6-54-13.2-64.4c21.1-12.1,39.8-30.2,52.8-49.3c11.5,22.2,23,68.4,25.3,73.8c3,7,2,53.5,2,53.5
					C427.6,559.1,422.9,561.7,415.2,562.9z"/>
			</g>
		</g>
	</g>
	<g>
		<g>
			<g>
				<path class="st0" d="M403.2,564.6c-9,0-19-0.8-26.7-1.6c-1.9-0.2-3.6-0.4-5.2-0.5c-3.6-0.4-6.5-0.7-8-0.8l-0.6,0
					c-3.8-0.2-5.8-0.3-7-1.7c-1.3-1.7-0.9-4.4,0.2-11.1c0.4-2.3,0.9-5.3,1.4-8.8c4.5-30.5-6.2-53-13-63.7l-0.6-0.9l0.9-0.5
					c20.3-11.7,38.9-29.1,52.5-49l0.9-1.4l0.8,1.5c8.4,16.1,16.6,44.5,21.6,61.5c1.8,6.1,3.2,10.9,3.8,12.4c3,6.9,2.2,49.9,2.1,53.7
					c0.8,2,0.8,3.8-0.1,5.3c-1.4,2.5-5,4.2-10.9,5.1l-0.1,0C411.8,564.4,407.6,564.6,403.2,564.6z M346.5,476.1
					c6.9,11.3,17.2,33.9,12.7,64.2c-0.5,3.5-1,6.5-1.4,8.8c-0.9,5.5-1.4,8.6-0.6,9.5c0.6,0.7,2.6,0.8,5.5,1l0.6,0
					c1.6,0.1,4.5,0.4,8.1,0.8c1.6,0.2,3.3,0.3,5.2,0.5c11.4,1.1,27.9,2.4,38.4,0.9l0.1,0c5.1-0.8,8.3-2.2,9.3-4
					c0.6-1,0.5-2.2-0.1-3.7l-0.1-0.2l0-0.2c0.3-16,0.4-47.7-1.9-53.1c-0.7-1.5-2-6.2-3.9-12.6c-4.8-16.4-12.6-43.4-20.7-59.6
					C384.4,447.7,366.3,464.6,346.5,476.1z"/>
			</g>
		</g>
	</g>
</g>
<g>
	<g>
		<g>
			<g>
				<path class="st0" d="M339.1,456.6l-0.5-0.8c-3.5-5.9-8.7-16.5-3.5-21.8c4.4-4.4,10.3-0.6,13.8,2.2c-0.7-4,0.9-8.6,1-8.8l0-0.1
					c1.2-2.4,2.9-3.9,5.1-4.4c3.4-0.8,7.8,0.6,13,4.3l0.3,0.2l0.1,0.4c0.2,0.9,0.3,1.5,0.3,1.9c0,0,0,0,0,0.1c3.6,3.4,5,5.8,4.6,8
					c-0.6,3.3-5.1,5.1-12,7.9c-1.8,0.7-3.9,1.6-6,2.5l0,0c-3.5,1.5-8.8,3.9-14.5,7.5c-0.3,0.2-0.6,0.4-0.9,0.6L339.1,456.6z
					 M339.8,434c-1.2,0-2.3,0.4-3.3,1.4c-4.2,4.2,0.5,13.7,3.3,18.5c0,0,0,0,0,0c5.8-3.6,11.2-6.1,14.8-7.6h0
					c2.2-0.9,4.2-1.8,6.1-2.5c6-2.4,10.3-4.1,10.7-6.4c0.3-1.5-1.1-3.6-4.2-6.5l-0.3-0.2l-0.1-0.3c0,0,0-0.1-0.1-0.4
					c0-0.3-0.1-0.8-0.2-1.4c-4.5-3.1-8.3-4.4-11-3.7c-1.6,0.4-2.8,1.5-3.8,3.3c-0.2,0.6-2.2,6.7-0.1,10.1c0.4,0.6,0.9,1.4,0.2,2
					c-0.7,0.6-1.3,0.1-2.3-0.8C346.7,436.9,343,434,339.8,434z"/>
			</g>
		</g>
	</g>
</g>
<g>
	<g>
		<g>
			<g>
				<path class="st5" d="M415.2,562.9c-10.6,1.6-26.8,0.3-38.6-0.9c1-6.4,4.9-23.4,15.2-7.3c0,0,15-19.5,20.5-2.5
					C413.6,556.1,414.5,559.7,415.2,562.9z"/>
			</g>
		</g>
	</g>
	<g>
		<g>
			<g>
				<path class="st0" d="M403.2,564.6c-9,0-19-0.8-26.7-1.6l-1.1-0.1l0.2-1c1-6.2,3.1-13.9,7.6-14.8c2.7-0.6,5.6,1.4,8.7,6
					c2.3-2.7,8.9-9.7,14.6-8.7c3,0.5,5.3,3.1,6.7,7.6c1.2,3.6,2.2,7.2,2.9,10.8l0.2,1l-1.1,0.2C411.8,564.4,407.6,564.6,403.2,564.6
					z M377.8,561.1c11,1.1,26.1,2.2,36.2,0.9c-0.7-3.1-1.6-6.3-2.6-9.5c-1.2-3.7-2.9-5.8-5.2-6.2c-4.8-0.8-11.4,6.2-13.6,9l-0.9,1.1
					l-0.8-1.2c-2.9-4.5-5.4-6.6-7.4-6.2C381.2,549.5,379,554,377.8,561.1z"/>
			</g>
		</g>
	</g>
</g>
<g>
	<g>
		<g>
			<g>
				<path class="st0" d="M332.8,112.8c0,2.1-1.7,3.7-3.7,3.7c-2.1,0-3.7-1.7-3.7-3.7c0-2.1,1.7-3.7,3.7-3.7
					C331.1,109.1,332.8,110.7,332.8,112.8z"/>
			</g>
		</g>
	</g>
	<g>
		<g>
			<g>
				<path class="st0" d="M329,117.5c-2.6,0-4.7-2.1-4.7-4.7c0-2.6,2.1-4.7,4.7-4.7c2.6,0,4.7,2.1,4.7,4.7
					C333.8,115.4,331.6,117.5,329,117.5z M329,110.1c-1.5,0-2.7,1.2-2.7,2.7c0,1.5,1.2,2.7,2.7,2.7c1.5,0,2.7-1.2,2.7-2.7
					C331.8,111.3,330.5,110.1,329,110.1z"/>
			</g>
		</g>
	</g>
</g>
<g>
	<g>
		<g>
			<g>
				<path class="st6" d="M419.3,228.5c-6.6-19.2-19.8-14.1-26.4-9.9c-15.1-25.6-32.3-42.2-42.7-49.7c-1,0.3-1.9,0.6-2.7,0.6
					c-0.7,0.9-1.4,1.7-2.2,2.6c-1.2,1.3-2.6,2.5-4,3.5c-2.8,7.7-6.5,14.7-10.6,21c-11.8,17.7-27.7,29.3-42,33.3
					c-2.1,0.6-6,0.7-10,0.5l-2.5,9.4c-5.8,1.5-31.2,9.6-21.8,37.6c0.5,1.6,1.2,3.3,2,5.1c16,36,50.5,27.5,50.5,27.5s51-31.5,53-23
					c0.5,2.2,1.9,1.9,3.6-0.1c10-0.4,38.5-2.5,52.3-13.2v0c4.7-3.6,7.7-8.3,7.7-14.2C423.2,245.4,421.7,235.4,419.3,228.5z
					 M369.4,273.6l-1.1,0.1c0,0-4-0.2-8.4-1.1c-7-1.5-15.2-4.8-9.6-11.9c4-5.2,7.4-7.1,9.8-7.7c1.4-0.3,2.4-0.2,3.2,0
					c-0.8-0.4-2-1-3.2-1.7c-5.5-3.1-12.9-8.8-5.3-13.6c2.3-1.5,4.3-2.4,6-3c0.3,0.1,0.7,0.2,1,0.4c2.4,1,4.5,2.5,6,4.5
					c0.9,1.2,1.6,2.6,2,4.2c0.7,2.4,1.2,4.9,1.5,7.4c0.1,0.4,0.1,0.9,0.1,1.3c0.5,5.2,0.1,10.3-0.7,15.1
					C370.4,269.6,369.9,271.7,369.4,273.6z"/>
			</g>
		</g>
	</g>
</g>
<g>
	<g>
		<g>
			<g>
				<path class="st0" d="M306.3,261.3l-2-0.3c0.6-4.3,3.5-9,8.6-13.4c11.9-10.3,34.6-18.6,48.2-14l-0.6,1.9
					c-10.4-3.6-31.9,1.2-46.2,13.6C309.5,253.3,306.8,257.5,306.3,261.3z"/>
			</g>
		</g>
	</g>
</g>
<g>
	<g>
		<g>
			<g>
				<path class="st0" d="M310.8,249.8c-7.3,0-22.6-2.5-26.2-3.1l0.3-2c9.7,1.6,26.1,3.8,28.4,2.8l0.8,1.8
					C313.6,249.6,312.4,249.8,310.8,249.8z"/>
			</g>
		</g>
	</g>
</g>
<g>
	<g>
		<g>
			<g>
				
					<rect x="372.3" y="222.7" transform="matrix(0.542 0.8404 -0.8404 0.542 365.8919 -207.48)" class="st0" width="2" height="18.4"/>
			</g>
		</g>
	</g>
</g>
<g>
	<g>
		<g>
			<g>
				<path class="st5" d="M376.8,242.2c-1,4.8-3.8,7.6-5.5,8.9c-0.3-2.5-0.8-5-1.5-7.4c-0.5-1.6-1.2-3-2-4.2
					C371.2,238.4,377.9,237,376.8,242.2z"/>
			</g>
		</g>
	</g>
	<g>
		<g>
			<g>
				<path class="st0" d="M370.5,253l-0.2-1.8c-0.3-2.5-0.8-4.9-1.5-7.2c-0.4-1.4-1.1-2.7-1.9-3.9l-0.8-1.1l1.3-0.4
					c3.2-1,7.4-1.8,9.4,0c1,0.9,1.3,2.2,0.9,3.9l0,0c-1.1,5.2-4.1,8.2-5.9,9.5L370.5,253z M369.3,240.1c0.6,1,1.1,2.1,1.4,3.3
					c0.5,1.8,1,3.7,1.3,5.7c1.4-1.4,3.1-3.8,3.8-7.1l0,0c0.2-0.9,0.1-1.6-0.3-2C374.7,239.3,372.4,239.3,369.3,240.1z"/>
			</g>
		</g>
	</g>
</g>
<g>
	<g>
		<g>
			<g>
				<path class="st5" d="M370.7,267.4c0.8-4.7,1.2-9.9,0.7-15.1c2.5,0.9,7.6,3,8.4,6.6C380.8,263.6,372.8,267.2,370.7,267.4z"/>
			</g>
		</g>
	</g>
	<g>
		<g>
			<g>
				<path class="st0" d="M369.5,268.6l0.2-1.3c0.9-5.1,1.1-10.1,0.7-14.8l-0.1-1.5l1.5,0.5c3,1,8.2,3.4,9,7.3
					c0.3,1.5-0.1,2.9-1.1,4.3c-2.1,3-6.9,5.1-8.8,5.4L369.5,268.6z M372.6,253.9c0.2,3.9,0,8-0.6,12.2c1.9-0.7,4.7-2.2,6.1-4.2
					c0.7-1,0.9-1.9,0.8-2.7C378.3,256.6,374.9,254.8,372.6,253.9z"/>
			</g>
		</g>
	</g>
</g>
<g>
	<g>
		<g>
			<g>
				<line class="st1" x1="363.4" y1="287.1" x2="369.4" y2="273.6"/>
			</g>
		</g>
	</g>
	<g>
		<g>
			<g>
				
					<rect x="365.4" y="273" transform="matrix(0.9136 0.4065 -0.4065 0.9136 145.6227 -124.7278)" class="st0" width="2" height="14.8"/>
			</g>
		</g>
	</g>
</g>
<g>
	<g>
		<g>
			<path class="st0" d="M367.8,101.4c-0.1-0.4-6.1-38.1-16.1-44.8l-1.1-0.7l0.9-0.9c1-0.9,24-21.8,34.7-21.3l-0.1,2
				c-0.1,0-0.2,0-0.3,0c-9,0-27.7,16.1-32,20c10.1,8.7,15.7,43.9,15.9,45.4L367.8,101.4z"/>
		</g>
	</g>
</g>
<g>
	<g>
		<g>
			<path class="st0" d="M233.2,116.3l-2-0.2c0.1-1.6,3.7-36.9,13.3-46.3c-4.6-3.6-24.7-19-33.5-18l-0.2-2
				c10.8-1.1,34.9,18.4,35.9,19.2l1,0.8l-1,0.8C237.1,77.8,233.3,115.9,233.2,116.3z"/>
		</g>
	</g>
</g>
</svg>
