<?xml version="1.0" encoding="utf-8"?>
<!-- Generator: Adobe Illustrator 19.1.0, SVG Export Plug-In . SVG Version: 6.00 Build 0)  -->
<!DOCTYPE svg PUBLIC "-//W3C//DTD SVG 1.1//EN" "http://www.w3.org/Graphics/SVG/1.1/DTD/svg11.dtd">
<svg version="1.1" id="Layer_1" xmlns="http://www.w3.org/2000/svg" xmlns:xlink="http://www.w3.org/1999/xlink" x="0px" y="0px"
	 viewBox="0 0 216 216" style="enable-background:new 0 0 216 216;" xml:space="preserve">
<style type="text/css">
	.st0{fill:#37306B;}
</style>
<path class="st0" d="M81.7,101.5c-1-0.4-2-0.8-3.1-1.3c0.6-0.9,1.4-1,2-1.4c2.1-1.3,4.2-2.5,6.2-3.9c8.1-5.6,13.3-13.2,15.8-22.6
	c3-11.2,2.9-22.4-0.2-33.5C98.5,25.3,90.3,15.3,78,8.7c-4.3-2.3-8.9-4.1-13.6-5.3C55.6,0.9,46.5,0,37.4,0C4.1,0-29.2,0-62.4,0
	c-3.7,0-3.1-0.4-3.1,3.2c0,39.9,0,79.7,0,119.6c0,30.3,0,60.6,0,90.9c0,2.4-0.3,2.4,2.3,2.3c0.2,0,0.4,0,0.5,0c31.9,0,63.8,0,95.7,0
	c9.7,0,19.3-0.9,28.8-2.8c6.1-1.2,12-3.2,17.5-6.2c12.1-6.6,20.7-16.5,26.4-28.9c6.6-14.5,7.4-29.5,3.5-44.8
	C105.3,118.3,96,107.7,81.7,101.5z M-13.4,37.5c13.3,0,26.6,0,39.9,0c7.1,0,14.1,0.8,20.9,2.6c8.1,2.1,12.5,7.5,13.8,15.6
	c0.7,4.2,0.6,8.5-0.4,12.7c-1.3,5.6-4.4,9.8-9.6,12.4c-4.2,2.1-8.6,3.3-13.2,3.9c-3.3,0.4-6.7,0.5-10,0.5c-6.1,0-12.1,0-18.2,0
	c-7.5,0-15,0-22.5,0c-0.7,0-1.4,0-2.2,0c-0.5,0-0.8-0.3-0.9-0.8c0-0.5,0-1.1,0-1.6c0-14.3,0-28.6,0-42.8
	C-15.7,37.3-15.9,37.5-13.4,37.5z M64.9,157.8c-2.5,10.3-9,16.6-19.2,19.1c-5.1,1.3-10.3,1.6-15.6,1.6c-12,0-24,0-36.1,0
	c-2.6,0-5.2,0-7.9,0c-1.8,0-1.8,0-1.8-1.7c0-3.2,0-6.3,0-9.5c0-5.9,0-11.8,0-17.6c0-8.6,0-17.2,0-25.8c0-0.7,0-1.4,0-2.2
	c0-0.4,0.2-0.7,0.6-0.7c0.6,0,1.3,0,1.9,0c14.5,0,28.9,0,43.4,0c5.5,0,11,0.4,16.4,1.7c2.1,0.5,4.2,1.2,6.1,2.2
	c7.3,3.5,11.6,9.4,12.8,17.3C66.4,147.4,66.1,152.6,64.9,157.8z"/>
<path class="st0" d="M281.4,125.5c-0.2-5.9-0.8-11.7-2-17.5c-2.6-12.3-7.8-23.4-15.8-33.2c-5.8-7.1-12.9-12.7-21.2-16.6
	c-8.1-3.8-16.6-6.1-25.4-7.1c-9-1-18-1-27,0.4c-7.7,1.2-15.1,3.4-22.1,7c-18,9.2-29.8,23.6-35.5,43c-3,10-4,20.2-4.2,30.5
	c-0.1,5.7,0.3,11.4,0.9,17c0.8,7.3,2.4,14.4,5,21.3c3.8,10.1,9.6,18.8,18.1,25.5c13.2,10.5,28.2,16.7,45,18.3
	c10.8,1,21.5,0.4,32.1-2c18.8-4.3,33.3-14.8,43.8-30.9c2.9-4.5,5-9.4,6.1-14.7c0.6-2.8,0.2-2.5-2.1-2.5c-11.7,0-23.3,0-35,0
	c-1.2,0-2.7-0.5-3.7,0.3c-0.9,0.6-1.3,1.9-2,2.9c-4.3,6.9-10.4,11.5-18.4,13.4c-8.5,2-17.1,1.8-25.4-1
	c-10.6-3.6-17.8-10.7-21.2-21.5c-1.3-4-2-8.1-2.3-12.2c-0.2-2.7-0.4-2.5,2.3-2.5c18,0,36,0,54,0c17.6,0,35.3,0,52.9,0
	c0.7,0,1.4,0,2.2,0c1.1,0,1.2-0.1,1.2-1.3C281.5,136.5,281.6,131,281.4,125.5z M170,116.4c0.7-5.1,2-9.9,4.2-14.4
	c1.2-2.5,2.7-4.9,4.5-7.1c4-4.9,9-8.2,15.2-9.8c7.5-1.9,15.1-2,22.5,0.2c12.2,3.7,19.7,11.9,22.4,24.4c0.4,1.8,0.6,3.7,0.8,5.6
	c0,0.3,0,0.7,0,1C237.4,116.7,172.8,116.8,170,116.4z"/>
<path class="st0" d="M162.2,30.5c0.7,0,1.4,0,2.2,0c13.3,0,26.6,0,39.8,0c13.5,0,26.9,0,40.4,0c0.7,0,1.4,0,2.2,0
	c1.1,0,1.2-0.1,1.2-1.3c0-6.2,0-12.5,0-18.7c0-1.5-0.1-1.6-1.5-1.6c-0.5,0-1.1,0-1.6,0c-26.9,0-53.8,0-80.7,0c-0.5,0-0.9,0-1.4,0
	c-1.7,0-1.7,0.1-1.7,1.6c0,6.2,0,12.5,0,18.7C161,30.4,161.1,30.5,162.2,30.5z"/>
</svg>
