<?xml version="1.0" encoding="utf-8"?>
<!-- Generator: Adobe Illustrator 19.1.0, SVG Export Plug-In . SVG Version: 6.00 Build 0)  -->
<!DOCTYPE svg PUBLIC "-//W3C//DTD SVG 1.1//EN" "http://www.w3.org/Graphics/SVG/1.1/DTD/svg11.dtd">
<svg version="1.1" id="Layer_1" xmlns="http://www.w3.org/2000/svg" xmlns:xlink="http://www.w3.org/1999/xlink" x="0px" y="0px"
	 viewBox="0 0 216 216" style="enable-background:new 0 0 216 216;" xml:space="preserve">
<style type="text/css">
	.st0{fill:#37306B;}
	.st1{fill:none;stroke:#37306B;stroke-width:11;stroke-miterlimit:10;}
</style>
<g>
	<path class="st0" d="M95.9,104.9c-0.5-0.2-1-0.4-1.5-0.6c0.3-0.4,0.7-0.5,0.9-0.7c1-0.6,2-1.2,3-1.9c3.9-2.7,6.4-6.4,7.6-10.9
		c1.4-5.4,1.4-10.8-0.1-16.1c-1.8-6.5-5.8-11.3-11.7-14.5c-2.1-1.1-4.3-2-6.5-2.6c-4.3-1.2-8.6-1.6-13-1.6c-16,0-32,0-48,0
		c-1.8,0-1.5-0.2-1.5,1.5c0,19.2,0,38.4,0,57.6c0,14.6,0,29.1,0,43.7c0,1.2-0.1,1.1,1.1,1.1c0.1,0,0.2,0,0.3,0c15.4,0,30.7,0,46.1,0
		c4.7,0,9.3-0.4,13.9-1.3c3-0.6,5.8-1.5,8.4-3c5.8-3.2,10-7.9,12.7-13.9c3.2-7,3.6-14.2,1.7-21.5
		C107.3,112.9,102.8,107.9,95.9,104.9z M50.1,74.1c6.4,0,12.8,0,19.2,0c3.4,0,6.8,0.4,10.1,1.2c3.9,1,6,3.6,6.7,7.5
		c0.3,2,0.3,4.1-0.2,6.1c-0.6,2.7-2.1,4.7-4.6,6c-2,1-4.1,1.6-6.3,1.9C73.3,97,71.7,97,70.1,97c-2.9,0-5.8,0-8.7,0
		c-3.6,0-7.2,0-10.8,0c-0.3,0-0.7,0-1,0c-0.2,0-0.4-0.1-0.4-0.4c0-0.3,0-0.5,0-0.8c0-6.9,0-13.7,0-20.6C49,74,48.9,74.1,50.1,74.1z
		 M87.8,132c-1.2,5-4.3,8-9.3,9.2c-2.5,0.6-5,0.8-7.5,0.8c-5.8,0-11.6,0-17.4,0c-1.3,0-2.5,0-3.8,0c-0.9,0-0.9,0-0.9-0.8
		c0-1.5,0-3,0-4.6c0-2.8,0-5.7,0-8.5c0-4.1,0-8.3,0-12.4c0-0.3,0-0.7,0-1c0-0.2,0.1-0.3,0.3-0.3c0.3,0,0.6,0,0.9,0
		c7,0,13.9,0,20.9,0c2.7,0,5.3,0.2,7.9,0.8c1,0.2,2,0.6,2.9,1c3.5,1.7,5.6,4.5,6.2,8.3C88.5,127,88.4,129.5,87.8,132z"/>
	<path class="st0" d="M192,116.4c-0.1-2.8-0.4-5.6-0.9-8.4c-1.2-5.9-3.7-11.3-7.6-16c-2.8-3.4-6.2-6.1-10.2-8
		c-3.9-1.8-8-2.9-12.2-3.4c-4.3-0.5-8.7-0.5-13,0.2c-3.7,0.6-7.3,1.6-10.6,3.3c-8.7,4.4-14.3,11.4-17.1,20.7
		c-1.4,4.8-1.9,9.7-2,14.7c0,2.7,0.1,5.5,0.4,8.2c0.4,3.5,1.1,6.9,2.4,10.3c1.8,4.9,4.6,9,8.7,12.3c6.4,5.1,13.6,8.1,21.7,8.8
		c5.2,0.5,10.3,0.2,15.4-1c9-2.1,16-7.1,21.1-14.9c1.4-2.2,2.4-4.5,2.9-7.1c0.3-1.4,0.1-1.2-1-1.2c-5.6,0-11.2,0-16.8,0
		c-0.6,0-1.3-0.2-1.8,0.1c-0.4,0.3-0.6,0.9-0.9,1.4c-2.1,3.3-5,5.5-8.8,6.4c-4.1,1-8.2,0.9-12.2-0.5c-5.1-1.7-8.6-5.2-10.2-10.3
		c-0.6-1.9-1-3.9-1.1-5.9c-0.1-1.3-0.2-1.2,1.1-1.2c8.7,0,17.3,0,26,0c8.5,0,17,0,25.5,0c0.3,0,0.7,0,1,0c0.5,0,0.6,0,0.6-0.6
		C192.1,121.7,192.1,119.1,192,116.4z M138.4,112.1c0.3-2.5,1-4.8,2-6.9c0.6-1.2,1.3-2.4,2.2-3.4c1.9-2.4,4.3-4,7.3-4.7
		c3.6-0.9,7.2-1,10.8,0.1c5.9,1.8,9.5,5.7,10.8,11.7c0.2,0.9,0.3,1.8,0.4,2.7c0,0.2,0,0.3,0,0.5
		C170.8,112.2,139.7,112.2,138.4,112.1z"/>
	<path class="st0" d="M134.6,70.7c0.3,0,0.7,0,1,0c6.4,0,12.8,0,19.2,0c6.5,0,13,0,19.4,0c0.3,0,0.7,0,1,0c0.5,0,0.6,0,0.6-0.6
		c0-3,0-6,0-9c0-0.7,0-0.8-0.7-0.8c-0.3,0-0.5,0-0.8,0c-13,0-25.9,0-38.9,0c-0.2,0-0.4,0-0.7,0c-0.8,0-0.8,0-0.8,0.8c0,3,0,6,0,9
		C134.1,70.7,134.1,70.7,134.6,70.7z"/>
</g>
<rect class="st1" width="216" height="216"/>
</svg>
