<svg xmlns="http://www.w3.org/2000/svg" viewBox="0 0 216 216" enable-background="new 0 0 216 216"><style type="text/css">.st0{fill:#37306B;} .st1{fill:none;stroke:#37306B;stroke-width:11;stroke-miterlimit:10;}</style><path class="st0" d="M95.9 104.9l-1.5-.6c.3-.4.7-.5.9-.7 1-.6 2-1.2 3-1.9 3.9-2.7 6.4-6.4 7.6-10.9 1.4-5.4 1.4-10.8-.1-16.1-1.8-6.5-5.8-11.3-11.7-14.5-2.1-1.1-4.3-2-6.5-2.6-4.3-1.2-8.6-1.6-13-1.6h-48c-1.8 0-1.5-.2-1.5 1.5v101.30000000000001c0 1.2-.1 1.1 1.1 1.1h46.4c4.7 0 9.3-.4 13.9-1.3 3-.6 5.8-1.5 8.4-3 5.8-3.2 10-7.9 12.7-13.9 3.2-7 3.6-14.2 1.7-21.5-2-7.3-6.5-12.3-13.4-15.3zm-45.8-30.8h19.2c3.4 0 6.8.4 10.1 1.2 3.9 1 6 3.6 6.7 7.5.3 2 .3 4.1-.2 6.1-.6 2.7-2.1 4.7-4.6 6-2 1-4.1 1.6-6.3 1.9-1.7.2-3.3.2-4.9.2h-20.5c-.2 0-.4-.1-.4-.4v-21.400000000000002c-.2-1.2-.3-1.1.9-1.1zm37.7 57.9c-1.2 5-4.3 8-9.3 9.2-2.5.6-5 .8-7.5.8h-21.2c-.9 0-.9 0-.9-.8v-26.5c0-.2.1-.3.3-.3h21.799999999999997c2.7 0 5.3.2 7.9.8 1 .2 2 .6 2.9 1 3.5 1.7 5.6 4.5 6.2 8.3.5 2.5.4 5-.2 7.5zM192 116.4c-.1-2.8-.4-5.6-.9-8.4-1.2-5.9-3.7-11.3-7.6-16-2.8-3.4-6.2-6.1-10.2-8-3.9-1.8-8-2.9-12.2-3.4-4.3-.5-8.7-.5-13 .2-3.7.6-7.3 1.6-10.6 3.3-8.7 4.4-14.3 11.4-17.1 20.7-1.4 4.8-1.9 9.7-2 14.7 0 2.7.1 5.5.4 8.2.4 3.5 1.1 6.9 2.4 10.3 1.8 4.9 4.6 9 8.7 12.3 6.4 5.1 13.6 8.1 21.7 8.8 5.2.5 10.3.2 15.4-1 9-2.1 16-7.1 21.1-14.9 1.4-2.2 2.4-4.5 2.9-7.1.3-1.4.1-1.2-1-1.2h-16.8c-.6 0-1.3-.2-1.8.1-.4.3-.6.9-.9 1.4-2.1 3.3-5 5.5-8.8 6.4-4.1 1-8.2.9-12.2-.5-5.1-1.7-8.6-5.2-10.2-10.3-.6-1.9-1-3.9-1.1-5.9-.1-1.3-.2-1.2 1.1-1.2h52.5c.5 0 .6 0 .6-.6-.3-2.6-.3-5.2-.4-7.9zm-53.6-4.3c.3-2.5 1-4.8 2-6.9.6-1.2 1.3-2.4 2.2-3.4 1.9-2.4 4.3-4 7.3-4.7 3.6-.9 7.2-1 10.8.1 5.9 1.8 9.5 5.7 10.8 11.7.2.9.3 1.8.4 2.7v.5c-1.1.1-32.2.1-33.5 0zM134.6 70.7h40.599999999999994c.5 0 .6 0 .6-.6v-9c0-.7 0-.8-.7-.8h-40.4c-.8 0-.8 0-.8.8v9c.2.6.2.6.7.6z"/><path class="st1" d="M0 0h216v216h-216z"/></svg>