<svg xmlns="http://www.w3.org/2000/svg" viewBox="496 198 216 216" enable-background="new 496 198 216 216"><style type="text/css">.st0{fill:#37306B;} .st1{fill:none;stroke:#37306B;stroke-width:11;stroke-miterlimit:10;}</style><path class="st0" d="M647 275.8c-18.9 0-27.3 10.4-32.1 17.7v-15.2h-35.6c.5 10 0 107.1 0 107.1h35.6v-59.8c0-3.2.2-6.4 1.2-8.7 2.6-6.4 8.4-13 18.3-13 12.9 0 18 9.8 18 24.2v57.3h35.6v-61.4c0-32.9-17.6-48.2-41-48.2zM542.1 226.7c-12.2 0-20.1 8-20.1 18.5 0 10.3 7.7 18.5 19.7 18.5h.2c12.4 0 20.1-8.2 20.1-18.5-.2-10.5-7.7-18.5-19.9-18.5zM524.1 278.3h35.6v107.1h-35.6z"/><path class="st1" d="M496 198h216v216h-216z"/></svg>