<?xml version="1.0" encoding="utf-8"?>
<!-- Generator: Adobe Illustrator 19.1.0, SVG Export Plug-In . SVG Version: 6.00 Build 0)  -->
<!DOCTYPE svg PUBLIC "-//W3C//DTD SVG 1.1//EN" "http://www.w3.org/Graphics/SVG/1.1/DTD/svg11.dtd">
<svg version="1.1" id="Layer_1" xmlns="http://www.w3.org/2000/svg" xmlns:xlink="http://www.w3.org/1999/xlink" x="0px" y="0px"
	 viewBox="496 198 216 216" style="enable-background:new 496 198 216 216;" xml:space="preserve">
<style type="text/css">
	.st0{fill:#37306B;}
	.st1{fill:none;stroke:#37306B;stroke-width:11;stroke-miterlimit:10;}
</style>
<g>
	<path class="st0" d="M647,275.8L647,275.8c-18.9,0-27.3,10.4-32.1,17.7v-15.2h-35.6c0.5,10,0,107.1,0,107.1h35.6v-59.8
		c0-3.2,0.2-6.4,1.2-8.7c2.6-6.4,8.4-13,18.3-13c12.9,0,18,9.8,18,24.2v57.3H688v-61.4C688,291.1,670.4,275.8,647,275.8z"/>
	<path class="st0" d="M542.1,226.7L542.1,226.7c-12.2,0-20.1,8-20.1,18.5c0,10.3,7.7,18.5,19.7,18.5h0.2c12.4,0,20.1-8.2,20.1-18.5
		C561.8,234.7,554.3,226.7,542.1,226.7z"/>
	<rect x="524.1" y="278.3" class="st0" width="35.6" height="107.1"/>
</g>
<rect x="496" y="198" class="st1" width="216" height="216"/>
</svg>
