<?xml version="1.0" encoding="utf-8"?>
<!-- Generator: Adobe Illustrator 19.1.0, SVG Export Plug-In . SVG Version: 6.00 Build 0)  -->
<!DOCTYPE svg PUBLIC "-//W3C//DTD SVG 1.1//EN" "http://www.w3.org/Graphics/SVG/1.1/DTD/svg11.dtd">
<svg version="1.1" id="Layer_1" xmlns="http://www.w3.org/2000/svg" xmlns:xlink="http://www.w3.org/1999/xlink" x="0px" y="0px"
	 viewBox="496 198 216 216" style="enable-background:new 496 198 216 216;" xml:space="preserve">
<style type="text/css">
	.st0{fill:#37306B;}
</style>
<g>
	<path class="st0" d="M661.2,264.8L661.2,264.8c-25.7,0-37.2,14.1-43.7,24.1v-20.6h-48.4c0.6,13.7,0,145.7,0,145.7h48.4v-81.4
		c0-4.4,0.3-8.7,1.6-11.8c3.5-8.7,11.5-17.7,24.9-17.7c17.5,0,24.5,13.4,24.5,33v78h48.4v-83.6C716.9,285.7,693.1,264.8,661.2,264.8
		z"/>
	<path class="st0" d="M518.4,198L518.4,198c-16.6,0-27.4,10.9-27.4,25.2c0,14,10.5,25.2,26.8,25.2h0.3c16.9,0,27.4-11.2,27.4-25.2
		C545.2,208.9,535,198,518.4,198z"/>
	<rect x="493.8" y="268.3" class="st0" width="48.4" height="145.7"/>
</g>
</svg>
