<?xml version="1.0" encoding="utf-8"?>
<!-- Generator: Adobe Illustrator 19.1.0, SVG Export Plug-In . SVG Version: 6.00 Build 0)  -->
<!DOCTYPE svg PUBLIC "-//W3C//DTD SVG 1.1//EN" "http://www.w3.org/Graphics/SVG/1.1/DTD/svg11.dtd">
<svg version="1.1" id="Layer_1" xmlns="http://www.w3.org/2000/svg" xmlns:xlink="http://www.w3.org/1999/xlink" x="0px" y="0px"
	 viewBox="0 0 405.4 198.2" style="enable-background:new 0 0 405.4 198.2;" xml:space="preserve">
<style type="text/css">
	.st0{fill:#1CCFC9;}
	.st1{fill:#FF9012;}
</style>
<g>
	<g>
		<polygon class="st0" points="244.5,166.4 244.5,174.2 222.5,174.2 222.5,143.8 243.8,143.8 243.8,151.6 230.8,151.6 230.8,154.9 
			243.1,154.9 243.1,162.6 230.8,162.6 230.8,166.4 		"/>
	</g>
</g>
<g>
	<g>
		<polygon class="st0" points="276.5,143.8 276.5,174.2 266.8,174.2 255.8,156.4 255.8,174.2 247.6,174.2 247.6,143.8 257.6,143.8 
			268.2,161.1 268.2,143.8 		"/>
	</g>
</g>
<g>
	<g>
		<path class="st0" d="M298.5,162l-0.1-0.2c3.4-1.2,5.5-4.2,5.6-8.2v-0.1c0-0.1,0-0.2,0-0.3c-0.1-4.4-2.2-9.4-11.7-9.4h-12v30.4h8.3
			v-11.4h1.5l5.9,11.4h9.9L298.5,162z M295.5,153.5c-0.1,1.6-1.1,2-4.3,2h-2.7v-4.5h3.1c3.4,0,3.9,1.1,3.9,2.3V153.5z"/>
	</g>
</g>
<g>
	<g>
		<rect x="308" y="143.8" class="st0" width="8.3" height="30.4"/>
	</g>
</g>
<g>
	<g>
		<path class="st0" d="M348.4,155.3v16.5l-0.5,0.3c-3.6,1.9-7.8,2.8-12.4,2.8c-9.6,0-16.4-6.6-16.4-15.9c0-9.4,6.7-15.9,16.4-15.9
			c5.2,0,9.2,1.3,12,3.9l0.7,0.7l-5.8,6.3l-0.7-0.8c-1.6-1.7-3.4-2.4-6.2-2.4c-4.7,0-7.8,3.3-7.8,8.2c0,4.9,3.1,8.2,7.8,8.2
			c2.2,0,3.9-0.6,4.9-1v-3h-5.1v-7.8H348.4z"/>
	</g>
</g>
<g>
	<g>
		<polygon class="st0" points="378.6,143.8 378.6,174.2 370.3,174.2 370.3,161.9 360.1,161.9 360.1,174.2 351.9,174.2 351.9,143.8 
			360.1,143.8 360.1,154.4 370.3,154.4 370.3,143.8 		"/>
	</g>
</g>
<g>
	<g>
		<polygon class="st0" points="405.4,143.8 405.4,151.3 397.3,151.3 397.3,174.2 389.1,174.2 389.1,151.3 380.9,151.3 380.9,143.8 
					"/>
	</g>
</g>
<path class="st1" d="M299.9,57.1c-4.9,0-7.3,3.8-7.3,7.7c0,3.8,2.4,7.7,7.3,7.7c4.9,0,7.3-3.8,7.3-7.7
	C307.3,60.9,304.8,57.1,299.9,57.1z"/>
<path class="st1" d="M123.8,155.4c-4.8-2.6-9.3-5.6-13.6-8.9c-0.2-0.1-0.3-0.2-0.5-0.4c-0.6-0.5-1.1-0.9-1.7-1.4
	c-1.2-1-2.4-2-3.6-3.1c-2.2-2-4.4-4-6.6-6.2c-4.5-4.4-8.7-9.1-12.6-14.1c-0.2-0.2-0.3-0.4-0.5-0.6c-0.4-0.5-0.8-1-1.2-1.6
	c-0.9-1.2-1.8-2.4-2.6-3.7c-1.7-2.5-3.4-5-4.9-7.7c-1.6-2.8-3.2-5.6-4.5-8.5c0-0.1-0.1-0.2-0.2-0.3c0.8-5.1,1.6-10.2,2.2-15.4
	c4.5-4.4,9.2-8.5,14-12.5c1.1-1,2.3-1.9,3.5-2.8c0.6-0.5,1.2-1,1.9-1.5c0.1-0.1,0.2-0.1,0.3-0.2c0.2-0.2,0.4-0.3,0.4-0.3
	c2.5-1.9,5-3.7,7.5-5.5c5.2-3.7,10.5-7.2,15.9-10.5c11.2-6.9,22.8-13.1,34.6-18.7c3-1.4,6-2.8,9-4.2c3-1.4,4.7-4.9,4.7-8.3v-0.2
	c0-1.7-0.4-3.4-1.3-4.7c-3-4.7-8.1-5.6-12.9-3.4c-26.4,12-51.7,26.3-74.3,44.6c0.9-8.2,1.9-16.4,2.2-24.6c0-1,0.1-2,0.1-2.9
	c0-1.6,0-3.2,0-4.8c0-1.2-0.1-2.3-0.1-3.5c-0.1-1.2-0.2-2.4-0.3-3.7c-0.2-2.4-0.3-5-1.5-7.1c-1.4-2.4-4-4-6.6-5c-3-1-6.4-0.9-9.4,0
	c-5,1.7-9.1,5.3-13,8.7c-3.1,2.8-6.1,5.7-8.9,8.9C33.2,28.4,27.8,35.9,23.4,44c-2.3,4.2-4.2,8.5-6.1,13c-0.3,0.7-0.4,1.5-0.4,2.3
	c0,1.8,0.6,3.9,1.3,5.2c1.1,2,3.4,3.8,5.6,4.3c2.4,0.5,5.1,0.4,7.3-1c2.2-1.4,3.3-3.2,4.3-5.5c0-0.1,0.1-0.2,0.1-0.3
	c0.3-0.6,0.5-1.2,0.8-1.8c0.6-1.2,1.1-2.4,1.7-3.6c1.2-2.2,2.4-4.5,3.7-6.6c1.3-2.2,2.7-4.3,4.1-6.4c0.8-1.1,1.5-2.1,2.3-3.2
	c0-0.1,0.1-0.1,0.1-0.1c0,0,0,0,0,0c0.4-0.5,0.8-1,1.2-1.5c3.2-3.9,6.7-7.6,10.4-11c0,0,0.1-0.1,0.1-0.1c0,0.6,0,1.3,0,1.9
	c0,0.7,0,1.3-0.1,2c0,1.3-0.1,2.6-0.2,4v0c-0.1,2.2-0.3,4.3-0.5,6.5c0,0,0,0,0,0c-0.2,1.6-0.3,3.2-0.5,4.8
	c-0.5,4.8-1.1,9.6-1.6,14.4c-0.5,4.5-1,9-1.5,13.5c-6.9,7.1-13.3,14.6-19.3,22.5C26,110.7,16.6,125.5,9.8,141.3
	c-3.9,9-7.1,18.2-8.7,27.8c-0.6,3.2-1,6.4-1.1,9.5c0,0.8,0,1.5,0,2.3c0,1.2,0.1,2.5,0.3,3.7c0.9,5.8,4.5,10.8,10.1,12.8
	c6.6,2.4,12.8-1,17.8-5c3.4-2.7,6.3-5.7,9-9C43,176,48,167.9,52.4,159.6c5.5-10.6,9.8-21.7,13-33.2c8.4,11.9,18.2,22.9,29.5,32.1
	c6.1,5,12.5,9.6,19.4,13.4c4.3,2.3,10.5,1.2,12.9-3.4c0.8-1.5,1.2-3.2,1.2-4.9v-0.1c0-0.2,0-0.4,0-0.6
	C128.2,159.9,126.7,156.9,123.8,155.4z M41.2,138.8c-0.1,0.3-0.2,0.6-0.4,0.9c-0.3,0.6-0.5,1.3-0.8,1.9c-0.7,1.6-1.4,3.2-2.2,4.7
	c-1.5,3.2-3.2,6.3-5,9.4c-1.8,3.2-3.8,6.3-5.8,9.4c-0.9,1.4-1.9,2.8-2.9,4.1c-0.1,0.2-0.2,0.3-0.4,0.5c-0.6,0.2-1.5,1.8-1.9,2.3
	c-0.8,1-1.7,1.9-2.7,2.8c0.1-0.8,0.3-1.6,0.4-2.4c0.4-2,0.8-3.9,1.3-5.8c0.9-3.5,2-7,3.2-10.4c0.6-1.7,1.2-3.3,1.9-5
	c0.1-0.2,0.2-0.4,0.3-0.6c0-0.1,0.1-0.2,0.2-0.4c0.4-0.9,0.8-1.7,1.2-2.6c3.2-6.9,6.9-13.5,10.8-20c3.5-5.7,7.2-11.3,11.1-16.7
	c0.1-0.2,0.2-0.3,0.4-0.5C47.7,120.2,44.9,129.7,41.2,138.8z"/>
<polygon class="st0" points="230.8,162.8 243.1,162.8 243.1,155.1 230.8,155.1 230.8,151.8 243.8,151.8 243.8,144 222.5,144 
	222.5,174.4 244.5,174.4 244.5,166.6 230.8,166.6 "/>
<polygon class="st0" points="268.2,161.3 257.6,144 247.6,144 247.6,174.4 255.8,174.4 255.8,156.6 266.8,174.4 276.5,174.4 
	276.5,144 268.2,144 "/>
<path class="st0" d="M298.4,162c0,0,0.1,0,0.1,0c3.4-1.2,5.5-4.3,5.5-8.4v-0.1c0-0.1,0-0.2,0-0.3c-0.1-4.3-2.3-9.2-11.7-9.2h-12
	v30.4h8.3v-11.4h1.5l5.9,11.4h9.9l-0.1-0.2L298.4,162z M295.5,153.6c0,1.7-1,2.2-4.3,2.2h-2.7v-4.5h3.1
	C295,151.3,295.5,152.3,295.5,153.6L295.5,153.6z"/>
<rect x="308" y="144" class="st0" width="8.3" height="30.4"/>
<path class="st0" d="M335.2,163.3h5.1v3c-1,0.5-2.7,1-4.9,1c-4.7,0-7.8-3.3-7.8-8.2s3.1-8.2,7.8-8.2c2.7,0,4.6,0.7,6.2,2.4l0.7,0.8
	l5.8-6.3l-0.7-0.7c-2.8-2.6-6.8-3.9-12-3.9c-9.6,0-16.4,6.6-16.4,15.9s6.7,15.9,16.4,15.9c4.6,0,8.8-1,12.4-2.8l0.5-0.3v-16.5h-13.1
	V163.3z"/>
<polygon class="st0" points="370.3,154.6 360.1,154.6 360.1,144 351.9,144 351.9,174.4 360.1,174.4 360.1,162.1 370.3,162.1 
	370.3,174.4 378.6,174.4 378.6,144 370.3,144 "/>
<polygon class="st0" points="380.9,144 380.9,151.5 389.1,151.5 389.1,174.4 397.3,174.4 397.3,151.5 405.4,151.5 405.4,144 "/>
<path class="st1" d="M330.3,108.7c9.5,11.7,25.9,17.6,41,14.9c10.2-1.9,21.4-8.5,23.1-19.5c0.2-1.1,0.2-2.1,0.2-3.1c0-0.3,0-0.7,0-1
	c-0.5-10.2-9-18.1-17.5-23c-6-3.5-12,1.9-11.9,7c0,0.1,0,0.2,0,0.3c0.1,2,1.1,4,3.5,5.4c3.5,2,10.7,6.2,10.8,11
	c0,0.7-0.2,1.4-0.6,2.2c-2.6,5.2-11.6,6.2-16.6,5.9c-10-0.6-21.3-6.5-24.2-16.7c-1.7-6.1-9.9-8.3-13.7-2.7c-1.5,2.2-2.9,4.3-4.4,6.5
	c-0.2,0.3-0.4,0.7-0.7,1c-0.7-3.1-1.4-6.2-2.1-9.3c-1.2-5.1-8.4-8.4-12.4-4.1c-3,3.1-5.9,6.3-8.8,9.4c-1.2,1.3-6.8,8.9-8.4,8.8
	c-0.8,0-1.1-0.8-1.2-2v-0.2c0.1-3.4,2.1-9.7,3.2-13.3c0.1-0.2,0.2-0.3,0.2-0.5c0,0-0.1,0-0.1,0c0,0,0,0,0,0c0,0,0-0.1,0.1-0.1
	c0,0,0,0,0,0c0.2-0.8,0.4-1.4,0.4-1.8c0.1-0.5,0.1-0.9,0.1-1.3c0.1-8.1-11.6-8.7-14.8-1.8c-5.1,10.8-13.4,20.1-23.3,26.7
	c-5.9,3.9-19.8,12-20,1.2v-0.1c0-0.1,0-0.2,0-0.4c0-0.5,0.1-1.1,0.1-1.7c0-0.3,0.1-0.7,0.2-1c0.4-0.1,0.8-0.2,1.2-0.3
	c24.1-7.8,42.1-25.6,54.2-47.5c7.1-12.9,13.2-26.9,16.5-41.2c0.3-1.1,0.4-2.1,0.4-3.2c0-0.3,0-0.6,0-1c0-0.2,0-0.3,0-0.5
	c-0.3-9.4-9.1-14.9-18.7-9.5c-11.4,6.4-21.3,18.8-29.7,28.6c-8.8,10.4-16.7,21.7-23.2,33.7c-5.4,9.8-16,28-16.5,43.1
	c0,0.6,0,1.3,0,1.9c0,0.4,0,0.9,0,1.3c0.3,6.3,2.8,11.8,8.5,15.7c12,8.1,27.1-0.7,37.3-7.8c3.9-2.8,7.5-5.8,10.8-9.1
	c1.8,3,4.4,5.5,7.6,6.9c9.3,4.2,17.5-2.6,24.4-10.2c1.7,5.8,4.5,10.8,10.4,11.6C321.9,118.5,326.5,114,330.3,108.7z M245.3,74.2
	c5.7-10.5,12.4-20.6,19.8-29.9c4-5.1,8.4-9.9,12.9-14.5c2.4-2.4,5.8-4.8,8.7-7.4c-0.2,0.6-0.4,1.2-0.6,1.8c-2.3,6.6-4.9,13-8,19.3
	c-8.7,17.7-21.4,34.5-39.3,43.3C241,82.3,243.2,78,245.3,74.2z"/>
<path class="st1" d="M210.4,65.5v-0.2C210,55.9,196.1,54,195.3,64c-0.4,5.3-0.9,10.6-1.3,15.9c-0.8,3.9-2.2,7.8-4,11.5
	c-1.2,2.4-4.3,8.9-7.5,8.1c-1.6-0.4-2.2-1.9-2.2-3.7v0c0.2-0.6,0.4-1.1,0.6-1.7c1.4-3.9,2.2-7.6,2.7-10.7c0.1-0.6,0.1-1.1,0.1-1.6
	c-0.2-7.4-11.9-9.3-14.7-1.9c-1.4,3.8-2.7,7.8-3.3,11.8c-0.3,0.8-0.7,1.5-1.1,2.2c-0.5,0.9-5.3,8.7-6.2,8.6
	c-1.7-0.1-2.4-2.5-2.6-5.6c0-0.2,0-0.4,0-0.7c0-0.2,0-0.5,0-0.7c0-0.6,0-1.2,0-1.8c0-0.7,0-1.4,0.1-2.2c0-0.4,0-0.7,0.1-1.1
	c0-0.4,0.1-0.7,0.1-1.1c0.1-1.5,0.3-2.9,0.5-4.2c0.2-0.3,0.4-0.6,0.5-0.9c0.3-0.6,0.6-1.2,0.8-1.9c0.6-1.9,0.9-3.8,0.8-5.6v-0.1
	c0-0.3,0-0.5-0.1-0.8c-0.9-8.9-9.7-16.6-19.7-16.2c-16.7,0.7-26.2,18.4-28.6,33c-0.2,1-0.3,2-0.3,3c0,0.1,0,0.2,0,0.3
	c0,0.4,0,0.7,0,1.1c0,0.8,0,1.6,0,2.4c0,0.7,0.1,1.3,0.1,2c0,0,0,0,0,0c0,0.3,0,0.6,0.1,1c0,0.4,0.1,0.7,0.1,1.1
	c0,0.2,0.1,0.4,0.1,0.7c0.2,1.4,0.5,2.8,0.9,4.2c0.1,0.2,0.1,0.4,0.2,0.6c0.2,0.6,0.4,1.2,0.6,1.8c0.2,0.6,0.5,1.2,0.7,1.8
	c0.1,0.3,0.3,0.6,0.4,0.9c0.1,0.3,0.3,0.6,0.5,0.8c0.1,0.3,0.3,0.5,0.5,0.8c0.5,0.8,1,1.5,1.6,2.2c0.2,0.2,0.4,0.4,0.6,0.6
	c3.8,3.9,9.3,5.2,16.9,1.7c3.6-1.7,6.7-4,9.3-6.7c0.4-0.5,0.9-0.9,1.3-1.4c0,0,0,0,0,0c0.4-0.5,0.8-1,1.2-1.5
	c0.7,1.2,1.6,2.4,2.6,3.3c2.2,2.2,5,3.7,8.7,4.1c5.5,0.7,10.2-1.6,14.1-5.3c0.5-0.5,1-1,1.4-1.5c4.6,4.2,11,5.6,17.2,3.2
	c0.9-0.3,1.7-0.7,2.5-1.2c-0.1,1.4-0.2,2.8-0.3,4.2c-0.5,6-1.1,12.1-1.6,18.2c-0.1,0.8-0.1,1.6-0.2,2.4c-0.1,1.1-0.2,2.2-0.2,3.2
	c0,0.1,0,0.3,0,0.4c-0.1,0.7-0.1,1.5-0.1,2.2c0,0.4-0.1,0.8-0.1,1.3c0,0,0,0,0,0c0,0.8-0.1,1.5-0.1,2.2c0,0.6-0.1,1.1-0.1,1.7
	c-0.2,5-0.4,10-0.2,15.1c0,0.6,0,1.3,0.1,1.9c0,0.6,0.1,1.3,0.1,1.9c0,0.1,0,0.1,0,0.2c0,0.1,0,0.2,0,0.4c0,0.2,0,0.3,0,0.4v0
	c0,0.2,0,0.4,0.1,0.5c0,0,0,0.1,0,0.1c0,0.2,0.1,0.3,0.1,0.5c0.2,0.8,0.6,1.4,1,2c0.1,0.1,0.2,0.2,0.2,0.3c0.3,0.4,0.7,0.7,1,1
	c0.1,0.1,0.2,0.1,0.3,0.2c0.3,0.2,0.6,0.4,1,0.5c0.1,0.1,0.3,0.1,0.4,0.2c0.2,0.1,0.4,0.1,0.6,0.2c0.1,0,0.3,0.1,0.4,0.1
	c0.2,0.1,0.5,0.1,0.8,0.2c0.2,0,0.4,0.1,0.6,0.1c0.1,0,0.2,0,0.3,0c0.1,0,0.2,0,0.3,0c0.8,0,1.7-0.1,2.5-0.3c0.7-0.2,1.4-0.5,2-0.8
	c0,0,0,0,0,0s0,0,0,0c0,0,0,0,0,0c2.7-2.1,3.2-10.2,3.2-15.5l0.2-4.4v0l0-0.2l0.1-1l0.8-17.1v0c0.6-6.7,1.4-13.3,1.9-19.9
	c0.9-10.7,1.7-21.5,2.6-32.2c0.1-0.7,0.2-1.3,0.4-2c0.1-0.6,0.2-1.2,0.3-1.8c0-0.1,0-0.2,0-0.4c0.1-0.6,0.2-1.2,0.2-1.8
	c0.1-0.6,0.1-1.1,0.2-1.7c0.1-0.8,0.1-1.5,0.2-2.2c0-0.6,0.1-1.2,0.1-1.7c0-0.3,0-0.7,0-1c0-0.3,0-0.7,0-1
	C210.5,68.3,210.4,66.9,210.4,65.5z M142.8,76.4c-0.2,0.9-0.5,1.8-0.7,2.7l0,0.2l-1.4,4.9v0c0,0.1-0.1,0.3-0.1,0.4l-0.1,0.2v0
	c-1,3.2-2.2,6.4-3.6,9.5c-1.4,3-3.2,6-5.6,8.3c-3,2.9-6,4.6-6.3-0.7c0-0.4,0-0.8,0-1.2c0-0.7,0-1.4,0-2.1c0-0.9,0.1-1.8,0.2-2.7
	c0-0.4,0.1-0.7,0.2-1.1c0.1-0.5,0.2-1,0.3-1.5c0.1-0.3,0.1-0.6,0.2-1c0.1-0.3,0.2-0.7,0.2-1c0-0.2,0.1-0.4,0.2-0.6
	c0.1-0.2,0.1-0.5,0.2-0.7c0-0.1,0.1-0.3,0.1-0.4c0.1-0.3,0.2-0.7,0.3-1c0.1-0.4,0.3-0.8,0.4-1.2c0.1-0.3,0.2-0.6,0.4-0.9
	c0.1-0.2,0.2-0.4,0.2-0.6c0-0.1,0.1-0.2,0.1-0.3c0.1-0.3,0.3-0.6,0.4-0.9c0.7-1.4,1.5-2.8,2.4-4c0.4-0.6,0.9-1.2,1.3-1.7
	c0.5-0.6,1-1.1,1.5-1.6c0.4-0.4,0.8-0.8,1.3-1.1c0.3-0.2,0.6-0.4,0.9-0.6s0.6-0.3,1-0.5l0.5-0.2c1.6-0.5,4.1-0.4,5.2,0.6
	c0.1,0.1,0.2,0.2,0.3,0.3c0,0,0,0,0,0C142.9,76.2,142.8,76.3,142.8,76.4z"/>
</svg>
