<svg xmlns="http://www.w3.org/2000/svg" viewBox="0 0 405.4 198.2" enable-background="new 0 0 405.4 198.2"><style type="text/css">.st0{fill:#1CCFC9;} .st1{fill:#FF9012;}</style><path class="st0" d="M244.5 166.4v7.8h-22v-30.4h21.3v7.8h-13v3.3h12.3v7.7h-12.3v3.8zM276.5 143.8v30.4h-9.7l-11-17.8v17.8h-8.2v-30.4h10l10.6 17.3v-17.3zM298.5 162l-.1-.2c3.4-1.2 5.5-4.2 5.6-8.2v-.4c-.1-4.4-2.2-9.4-11.7-9.4h-12v30.4h8.3v-11.4h1.5l5.9 11.4h9.9l-7.4-12.2zm-3-8.5c-.1 1.6-1.1 2-4.3 2h-2.7v-4.5h3.1c3.4 0 3.9 1.1 3.9 2.3v.2zM308 143.8h8.3v30.4h-8.3zM348.4 155.3v16.5l-.5.3c-3.6 1.9-7.8 2.8-12.4 2.8-9.6 0-16.4-6.6-16.4-15.9 0-9.4 6.7-15.9 16.4-15.9 5.2 0 9.2 1.3 12 3.9l.7.7-5.8 6.3-.7-.8c-1.6-1.7-3.4-2.4-6.2-2.4-4.7 0-7.8 3.3-7.8 8.2 0 4.9 3.1 8.2 7.8 8.2 2.2 0 3.9-.6 4.9-1v-3h-5.1v-7.8h13.1zM378.6 143.8v30.4h-8.3v-12.3h-10.2v12.3h-8.2v-30.4h8.2v10.6h10.2v-10.6zM405.4 143.8v7.5h-8.1v22.9h-8.2v-22.9h-8.2v-7.5z"/><path class="st1" d="M299.9 57.1c-4.9 0-7.3 3.8-7.3 7.7 0 3.8 2.4 7.7 7.3 7.7s7.3-3.8 7.3-7.7c.1-3.9-2.4-7.7-7.3-7.7zM123.8 155.4c-4.8-2.6-9.3-5.6-13.6-8.9-.2-.1-.3-.2-.5-.4l-1.7-1.4c-1.2-1-2.4-2-3.6-3.1-2.2-2-4.4-4-6.6-6.2-4.5-4.4-8.7-9.1-12.6-14.1l-.5-.6c-.4-.5-.8-1-1.2-1.6-.9-1.2-1.8-2.4-2.6-3.7-1.7-2.5-3.4-5-4.9-7.7-1.6-2.8-3.2-5.6-4.5-8.5 0-.1-.1-.2-.2-.3.8-5.1 1.6-10.2 2.2-15.4 4.5-4.4 9.2-8.5 14-12.5 1.1-1 2.3-1.9 3.5-2.8.6-.5 1.2-1 1.9-1.5l.3-.2c.2-.2.4-.3.4-.3 2.5-1.9 5-3.7 7.5-5.5 5.2-3.7 10.5-7.2 15.9-10.5 11.2-6.9 22.8-13.1 34.6-18.7l9-4.2c3-1.4 4.7-4.9 4.7-8.3v-.2c0-1.7-.4-3.4-1.3-4.7-3-4.7-8.1-5.6-12.9-3.4-26.4 12-51.7 26.3-74.3 44.6.9-8.2 1.9-16.4 2.2-24.6 0-1 .1-2 .1-2.9v-4.8l-.1-3.5c-.1-1.2-.2-2.4-.3-3.7-.2-2.4-.3-5-1.5-7.1-1.4-2.4-4-4-6.6-5-3-1-6.4-.9-9.4 0-5 1.7-9.1 5.3-13 8.7-3.1 2.8-6.1 5.7-8.9 8.9-6.1 7.1-11.5 14.6-15.9 22.7-2.3 4.2-4.2 8.5-6.1 13-.3.7-.4 1.5-.4 2.3 0 1.8.6 3.9 1.3 5.2 1.1 2 3.4 3.8 5.6 4.3 2.4.5 5.1.4 7.3-1s3.3-3.2 4.3-5.5l.1-.3.8-1.8 1.7-3.6c1.2-2.2 2.4-4.5 3.7-6.6 1.3-2.2 2.7-4.3 4.1-6.4l2.3-3.2c0-.1.1-.1.1-.1l1.2-1.5c3.2-3.9 6.7-7.6 10.4-11l.1-.1v1.9c0 .7 0 1.3-.1 2 0 1.3-.1 2.6-.2 4-.1 2.2-.3 4.3-.5 6.5l-.5 4.8-1.6 14.4-1.5 13.5c-6.9 7.1-13.3 14.6-19.3 22.5-10.2 13.4-19.6 28.2-26.4 44-3.9 9-7.1 18.2-8.7 27.8-.6 3.2-1 6.4-1.1 9.5v2.3c0 1.2.1 2.5.3 3.7.9 5.8 4.5 10.8 10.1 12.8 6.6 2.4 12.8-1 17.8-5 3.4-2.7 6.3-5.7 9-9 5.8-7.4 10.8-15.5 15.2-23.8 5.5-10.6 9.8-21.7 13-33.2 8.4 11.9 18.2 22.9 29.5 32.1 6.1 5 12.5 9.6 19.4 13.4 4.3 2.3 10.5 1.2 12.9-3.4.8-1.5 1.2-3.2 1.2-4.9v-.7c-.2-3-1.7-6-4.6-7.5zm-82.6-16.6c-.1.3-.2.6-.4.9l-.8 1.9c-.7 1.6-1.4 3.2-2.2 4.7-1.5 3.2-3.2 6.3-5 9.4-1.8 3.2-3.8 6.3-5.8 9.4-.9 1.4-1.9 2.8-2.9 4.1-.1.2-.2.3-.4.5-.6.2-1.5 1.8-1.9 2.3-.8 1-1.7 1.9-2.7 2.8l.4-2.4c.4-2 .8-3.9 1.3-5.8.9-3.5 2-7 3.2-10.4.6-1.7 1.2-3.3 1.9-5l.3-.6c0-.1.1-.2.2-.4l1.2-2.6c3.2-6.9 6.9-13.5 10.8-20 3.5-5.7 7.2-11.3 11.1-16.7.1-.2.2-.3.4-.5-2.2 9.8-5 19.3-8.7 28.4z"/><path class="st0" d="M230.8 162.8h12.3v-7.7h-12.3v-3.3h13v-7.8h-21.3v30.4h22v-7.8h-13.7zM268.2 161.3l-10.6-17.3h-10v30.4h8.2v-17.8l11 17.8h9.7v-30.4h-8.3zM298.4 162h.1c3.4-1.2 5.5-4.3 5.5-8.4v-.4c-.1-4.3-2.3-9.2-11.7-9.2h-12v30.4h8.3v-11.4h1.5l5.9 11.4h9.9l-.1-.2-7.4-12.2zm-2.9-8.4c0 1.7-1 2.2-4.3 2.2h-2.7v-4.5h3.1c3.4 0 3.9 1 3.9 2.3zM308 144h8.3v30.4h-8.3zM335.2 163.3h5.1v3c-1 .5-2.7 1-4.9 1-4.7 0-7.8-3.3-7.8-8.2s3.1-8.2 7.8-8.2c2.7 0 4.6.7 6.2 2.4l.7.8 5.8-6.3-.7-.7c-2.8-2.6-6.8-3.9-12-3.9-9.6 0-16.4 6.6-16.4 15.9s6.7 15.9 16.4 15.9c4.6 0 8.8-1 12.4-2.8l.5-.3v-16.5h-13.1v7.9zM370.3 154.6h-10.2v-10.6h-8.2v30.4h8.2v-12.3h10.2v12.3h8.3v-30.4h-8.3zM380.9 144v7.5h8.2v22.9h8.2v-22.9h8.1v-7.5z"/><path class="st1" d="M330.3 108.7c9.5 11.7 25.9 17.6 41 14.9 10.2-1.9 21.4-8.5 23.1-19.5.2-1.1.2-2.1.2-3.1v-1c-.5-10.2-9-18.1-17.5-23-6-3.5-12 1.9-11.9 7v.3c.1 2 1.1 4 3.5 5.4 3.5 2 10.7 6.2 10.8 11 0 .7-.2 1.4-.6 2.2-2.6 5.2-11.6 6.2-16.6 5.9-10-.6-21.3-6.5-24.2-16.7-1.7-6.1-9.9-8.3-13.7-2.7l-4.4 6.5c-.2.3-.4.7-.7 1l-2.1-9.3c-1.2-5.1-8.4-8.4-12.4-4.1-3 3.1-5.9 6.3-8.8 9.4-1.2 1.3-6.8 8.9-8.4 8.8-.8 0-1.1-.8-1.2-2v-.2c.1-3.4 2.1-9.7 3.2-13.3.1-.2.2-.3.2-.5h-.1s0-.1.1-.1c.2-.8.4-1.4.4-1.8.1-.5.1-.9.1-1.3.1-8.1-11.6-8.7-14.8-1.8-5.1 10.8-13.4 20.1-23.3 26.7-5.9 3.9-19.8 12-20 1.2v-.5c0-.5.1-1.1.1-1.7 0-.3.1-.7.2-1l1.2-.3c24.1-7.8 42.1-25.6 54.2-47.5 7.1-12.9 13.2-26.9 16.5-41.2.3-1.1.4-2.1.4-3.2v-1.5c-.3-9.4-9.1-14.9-18.7-9.5-11.4 6.4-21.3 18.8-29.7 28.6-8.8 10.4-16.7 21.7-23.2 33.7-5.4 9.8-16 28-16.5 43.1v3.2c.3 6.3 2.8 11.8 8.5 15.7 12 8.1 27.1-.7 37.3-7.8 3.9-2.8 7.5-5.8 10.8-9.1 1.8 3 4.4 5.5 7.6 6.9 9.3 4.2 17.5-2.6 24.4-10.2 1.7 5.8 4.5 10.8 10.4 11.6 6.2.6 10.8-3.9 14.6-9.2zm-85-34.5c5.7-10.5 12.4-20.6 19.8-29.9 4-5.1 8.4-9.9 12.9-14.5 2.4-2.4 5.8-4.8 8.7-7.4l-.6 1.8c-2.3 6.6-4.9 13-8 19.3-8.7 17.7-21.4 34.5-39.3 43.3 2.2-4.5 4.4-8.8 6.5-12.6zM210.4 65.5v-.2c-.4-9.4-14.3-11.3-15.1-1.3l-1.3 15.9c-.8 3.9-2.2 7.8-4 11.5-1.2 2.4-4.3 8.9-7.5 8.1-1.6-.4-2.2-1.9-2.2-3.7l.6-1.7c1.4-3.9 2.2-7.6 2.7-10.7.1-.6.1-1.1.1-1.6-.2-7.4-11.9-9.3-14.7-1.9-1.4 3.8-2.7 7.8-3.3 11.8-.3.8-.7 1.5-1.1 2.2-.5.9-5.3 8.7-6.2 8.6-1.7-.1-2.4-2.5-2.6-5.6v-3.2c0-.7 0-1.4.1-2.2 0-.4 0-.7.1-1.1l.1-1.1c.1-1.5.3-2.9.5-4.2.2-.3.4-.6.5-.9.3-.6.6-1.2.8-1.9.6-1.9.9-3.8.8-5.6v-.1c0-.3 0-.5-.1-.8-.9-8.9-9.7-16.6-19.7-16.2-16.7.7-26.2 18.4-28.6 33-.2 1-.3 2-.3 3v3.8l.1 2c0 .3 0 .6.1 1l.1 1.1c0 .2.1.4.1.7.2 1.4.5 2.8.9 4.2l.2.6.6 1.8.7 1.8.4.9c.1.3.3.6.5.8.1.3.3.5.5.8.5.8 1 1.5 1.6 2.2l.6.6c3.8 3.9 9.3 5.2 16.9 1.7 3.6-1.7 6.7-4 9.3-6.7l1.3-1.4 1.2-1.5c.7 1.2 1.6 2.4 2.6 3.3 2.2 2.2 5 3.7 8.7 4.1 5.5.7 10.2-1.6 14.1-5.3.5-.5 1-1 1.4-1.5 4.6 4.2 11 5.6 17.2 3.2.9-.3 1.7-.7 2.5-1.2l-.3 4.2c-.5 6-1.1 12.1-1.6 18.2l-.2 2.4c-.1 1.1-.2 2.2-.2 3.2v.4c-.1.7-.1 1.5-.1 2.2 0 .4-.1.8-.1 1.3 0 .8-.1 1.5-.1 2.2l-.1 1.7c-.2 5-.4 10-.2 15.1 0 .6 0 1.3.1 1.9l.1 1.9v1c0 .2 0 .4.1.5v.1l.1.5c.2.8.6 1.4 1 2 .1.1.2.2.2.3.3.4.7.7 1 1l.3.2c.3.2.6.4 1 .5l.4.2.6.2.4.1c.2.1.5.1.8.2l.6.1h.6c.8 0 1.7-.1 2.5-.3.7-.2 1.4-.5 2-.8 2.7-2.1 3.2-10.2 3.2-15.5l.2-4.4v-.2l.1-1 .8-17.1c.6-6.7 1.4-13.3 1.9-19.9l2.6-32.2c.1-.7.2-1.3.4-2l.3-1.8v-.4c.1-.6.2-1.2.2-1.8l.2-1.7c.1-.8.1-1.5.2-2.2 0-.6.1-1.2.1-1.7v-2c-.2-.9-.3-2.3-.3-3.7zm-67.6 10.9l-.7 2.7v.2l-1.4 4.9-.1.4-.1.2c-1 3.2-2.2 6.4-3.6 9.5-1.4 3-3.2 6-5.6 8.3-3 2.9-6 4.6-6.3-.7v-3.3c0-.9.1-1.8.2-2.7 0-.4.1-.7.2-1.1l.3-1.5c.1-.3.1-.6.2-1 .1-.3.2-.7.2-1 0-.2.1-.4.2-.6l.2-.7.1-.4.3-1 .4-1.2c.1-.3.2-.6.4-.9.1-.2.2-.4.2-.6l.1-.3.4-.9c.7-1.4 1.5-2.8 2.4-4 .4-.6.9-1.2 1.3-1.7.5-.6 1-1.1 1.5-1.6.4-.4.8-.8 1.3-1.1l.9-.6 1-.5.5-.2c1.6-.5 4.1-.4 5.2.6l.3.3c.1.3 0 .4 0 .5z"/></svg>