<?xml version="1.0" encoding="utf-8"?>
<!-- Generator: Adobe Illustrator 19.1.0, SVG Export Plug-In . SVG Version: 6.00 Build 0)  -->
<!DOCTYPE svg PUBLIC "-//W3C//DTD SVG 1.1//EN" "http://www.w3.org/Graphics/SVG/1.1/DTD/svg11.dtd">
<svg version="1.1" id="Layer_1" xmlns="http://www.w3.org/2000/svg" xmlns:xlink="http://www.w3.org/1999/xlink" x="0px" y="0px"
	 viewBox="0 0 216 216" style="enable-background:new 0 0 216 216;" xml:space="preserve">
<style type="text/css">
	.st0{fill:#37306B;}
</style>
<path class="st0" d="M-24.3,191.7c29.4,2.8,55.8-4.5,79.3-22.5c-2.8-0.4-5.6-0.5-8.4-1.1c-20.1-4.3-33.8-16-41.4-35.1
	c-0.7-1.8,0-1.7,1.4-1.5c8.6,1.1,15.7,0.7,22.1-1.3c-12.9-3.2-23.4-9.4-31.4-19.5c-8-10-11.8-21.5-11.9-34.6
	c6.1,3.3,12.4,5.4,18.9,6.3c1.7,0.2,3.4,0.7,5.4,0.3c-3.2-2.3-6.1-4.7-8.7-7.4C-15.1,58.5-18.8,32.4-7.7,12c1.1-2,1.1-2,2.5-0.3
	c17.7,21,39.3,36.3,65,45.9c14.2,5.3,28.8,8.4,43.9,9.3c1.6,0.1,1.9-0.3,1.6-1.9c-5.4-29,12-56.5,40.6-63.3
	c19.4-4.6,36.7,0.4,51.2,14.3c1.1,1,2,1.3,3.4,1c11-2.4,21.3-6.4,31.1-11.9c0.4-0.2,0.8-0.4,1.5-0.8C228.8,17,221,26.7,210,34
	c10.4-1.1,20.3-4,30.4-8.2c-2,3.2-4,5.8-6,8.3c-5.7,7-12.2,13.3-19.5,18.6c-1.1,0.8-1.4,1.5-1.4,2.9c0.8,29.9-6.5,57.8-21.2,83.7
	c-11.4,20.1-26.5,36.9-45.5,50.1c-16.7,11.6-35.1,19.3-55.1,23.3c-13.2,2.7-26.6,3.7-40,3.1c-19.2-0.8-37.5-5-55.1-12.8
	c-6.9-3-13.6-6.5-19.9-10.5C-23.7,192.4-24.2,192.3-24.3,191.7z"/>
</svg>
