<?xml version="1.0" encoding="utf-8"?>
<!-- Generator: Adobe Illustrator 19.1.0, SVG Export Plug-In . SVG Version: 6.00 Build 0)  -->
<!DOCTYPE svg PUBLIC "-//W3C//DTD SVG 1.1//EN" "http://www.w3.org/Graphics/SVG/1.1/DTD/svg11.dtd">
<svg version="1.1" id="Layer_1" xmlns="http://www.w3.org/2000/svg" xmlns:xlink="http://www.w3.org/1999/xlink" x="0px" y="0px"
	 viewBox="0 0 216 216" style="enable-background:new 0 0 216 216;" xml:space="preserve">
<style type="text/css">
	.st0{fill:#37306B;}
	.st1{fill:none;stroke:#37306B;stroke-width:11;stroke-miterlimit:10;}
</style>
<path class="st0" d="M25,160.5c18.4,1.7,35-2.8,49.7-14.1c-1.8-0.2-3.5-0.3-5.3-0.7c-12.6-2.7-21.2-10-25.9-22c-0.4-1.1,0-1.1,0.9-1
	c5.4,0.7,9.9,0.4,13.9-0.8c-8.1-2-14.7-5.9-19.7-12.2c-5-6.3-7.4-13.5-7.5-21.7c3.8,2.1,7.8,3.4,11.9,4c1.1,0.1,2.1,0.4,3.4,0.2
	c-2-1.5-3.8-3-5.4-4.6C30.8,77,28.5,60.6,35.4,47.8c0.7-1.2,0.7-1.2,1.5-0.2C48,60.7,61.6,70.4,77.7,76.4c8.9,3.3,18.1,5.3,27.6,5.8
	c1,0.1,1.2-0.2,1-1.2c-3.4-18.2,7.5-35.4,25.5-39.7c12.2-2.9,23,0.2,32.1,8.9c0.7,0.6,1.2,0.8,2.1,0.6c6.9-1.5,13.4-4,19.5-7.5
	c0.2-0.1,0.5-0.2,1-0.5c-2.7,8-7.6,14.1-14.5,18.7c6.5-0.7,12.7-2.5,19-5.2c-1.2,2-2.5,3.6-3.8,5.2c-3.6,4.4-7.6,8.3-12.2,11.7
	c-0.7,0.5-0.9,1-0.9,1.8c0.5,18.7-4.1,36.2-13.3,52.5c-7.2,12.6-16.6,23.2-28.5,31.4c-10.5,7.3-22,12.1-34.5,14.6
	c-8.3,1.7-16.7,2.3-25.1,1.9c-12-0.5-23.6-3.2-34.6-8c-4.3-1.9-8.5-4.1-12.5-6.6C25.4,160.9,25.1,160.9,25,160.5z"/>
<rect x="1" class="st1" width="216" height="216"/>
</svg>
