<svg xmlns="http://www.w3.org/2000/svg" viewBox="0 0 216 216" enable-background="new 0 0 216 216"><style type="text/css">.st0{fill:#37306B;} .st1{fill:none;stroke:#37306B;stroke-width:11;stroke-miterlimit:10;}</style><path class="st0" d="M25 160.5c18.4 1.7 35-2.8 49.7-14.1-1.8-.2-3.5-.3-5.3-.7-12.6-2.7-21.2-10-25.9-22-.4-1.1 0-1.1.9-1 5.4.7 9.9.4 13.9-.8-8.1-2-14.7-5.9-19.7-12.2-5-6.3-7.4-13.5-7.5-21.7 3.8 2.1 7.8 3.4 11.9 4 1.1.1 2.1.4 3.4.2-2-1.5-3.8-3-5.4-4.6-10.2-10.6-12.5-27-5.6-39.8.7-1.2.7-1.2 1.5-.2 11.1 13.1 24.7 22.8 40.8 28.8 8.9 3.3 18.1 5.3 27.6 5.8 1 .1 1.2-.2 1-1.2-3.4-18.2 7.5-35.4 25.5-39.7 12.2-2.9 23 .2 32.1 8.9.7.6 1.2.8 2.1.6 6.9-1.5 13.4-4 19.5-7.5.2-.1.5-.2 1-.5-2.7 8-7.6 14.1-14.5 18.7 6.5-.7 12.7-2.5 19-5.2-1.2 2-2.5 3.6-3.8 5.2-3.6 4.4-7.6 8.3-12.2 11.7-.7.5-.9 1-.9 1.8.5 18.7-4.1 36.2-13.3 52.5-7.2 12.6-16.6 23.2-28.5 31.4-10.5 7.3-22 12.1-34.5 14.6-8.3 1.7-16.7 2.3-25.1 1.9-12-.5-23.6-3.2-34.6-8-4.3-1.9-8.5-4.1-12.5-6.6-.2.1-.5.1-.6-.3z"/><path class="st1" d="M1 0h216v216h-216z"/></svg>